<svg width="31" height="30" viewBox="0 0 31 30" fill="none" xmlns="http://www.w3.org/2000/svg">
<path d="M15.2586 11.9C14.6439 11.9 14.043 12.0818 13.5319 12.4224C13.0208 12.7631 12.6224 13.2472 12.3871 13.8137C12.1519 14.3801 12.0904 15.0034 12.2103 15.6048C12.3302 16.2061 12.6262 16.7585 13.0609 17.192C13.4956 17.6256 14.0494 17.9208 14.6523 18.0404C15.2552 18.16 15.8801 18.0987 16.4481 17.864C17.016 17.6294 17.5014 17.2321 17.8429 16.7223C18.1845 16.2125 18.3667 15.6131 18.3667 15C18.3667 14.5929 18.2864 14.1898 18.1302 13.8137C17.974 13.4376 17.745 13.0958 17.4564 12.808C17.1678 12.5201 16.8252 12.2918 16.4481 12.136C16.071 11.9802 15.6668 11.9 15.2586 11.9ZM27.7036 8.8375C27.697 7.8722 27.5187 6.91571 27.1772 6.0125C26.9256 5.35157 26.5364 4.75137 26.0352 4.25148C25.534 3.7516 24.9323 3.3634 24.2696 3.1125C23.364 2.77183 22.4051 2.59408 21.4372 2.5875C19.8205 2.5 19.3443 2.5 15.2586 2.5C11.173 2.5 10.6968 2.5 9.08006 2.5875C8.11224 2.59408 7.15326 2.77183 6.24768 3.1125C5.58503 3.3634 4.98326 3.7516 4.48207 4.25148C3.98088 4.75137 3.59166 5.35157 3.34011 6.0125C2.99855 6.91571 2.82033 7.8722 2.81374 8.8375C2.72601 10.45 2.72601 10.925 2.72601 15C2.72601 19.075 2.72601 19.55 2.81374 21.1625C2.82723 22.1312 3.00521 23.0906 3.34011 24C3.59055 24.6579 3.97944 25.2546 4.48058 25.75C4.97962 26.2529 5.58269 26.6411 6.24768 26.8875C7.15326 27.2282 8.11224 27.4059 9.08006 27.4125C10.6968 27.5 11.173 27.5 15.2586 27.5C19.3443 27.5 19.8205 27.5 21.4372 27.4125C22.4051 27.4059 23.364 27.2282 24.2696 26.8875C24.9346 26.6411 25.5377 26.2529 26.0367 25.75C26.5379 25.2546 26.9267 24.6579 27.1772 24C27.5184 23.0924 27.6966 22.1318 27.7036 21.1625C27.7913 19.55 27.7913 19.075 27.7913 15C27.7913 10.925 27.7913 10.45 27.7036 8.8375ZM24.5203 18.8375C24.48 19.6089 24.315 20.3687 24.0315 21.0875C23.7882 21.6871 23.4265 22.2318 22.9679 22.6892C22.5093 23.1466 21.9632 23.5073 21.362 23.75C20.6345 24.017 19.8685 24.1647 19.0936 24.1875C18.1036 24.1875 17.8404 24.1875 15.2586 24.1875C12.6769 24.1875 12.4137 24.1875 11.4237 24.1875C10.6488 24.1647 9.88276 24.017 9.15526 23.75C8.53377 23.5196 7.97252 23.1522 7.51348 22.675C7.05938 22.2266 6.70869 21.6848 6.4858 21.0875C6.21705 20.3626 6.07299 19.5977 6.05969 18.825C6.05969 17.8375 6.05969 17.575 6.05969 15C6.05969 12.425 6.05969 12.1625 6.05969 11.175C6.07299 10.4023 6.21705 9.63735 6.4858 8.9125C6.71676 8.29263 7.08521 7.73285 7.56361 7.275C8.0152 6.82453 8.55778 6.47512 9.15526 6.25C9.88276 5.98301 10.6488 5.83526 11.4237 5.8125C12.4137 5.8125 12.6769 5.8125 15.2586 5.8125C17.8404 5.8125 18.1036 5.8125 19.0936 5.8125C19.8685 5.83526 20.6345 5.98301 21.362 6.25C21.9835 6.48035 22.5448 6.84784 23.0038 7.325C23.4579 7.77344 23.8086 8.31516 24.0315 8.9125C24.2992 9.63811 24.4473 10.4022 24.4701 11.175C24.4701 12.1625 24.4701 12.425 24.4701 15C24.4701 17.575 24.5579 17.8375 24.5203 18.825V18.8375ZM22.515 9.5375C22.3658 9.13373 22.1306 8.76705 21.8255 8.46277C21.5204 8.15848 21.1528 7.92383 20.7479 7.775C20.1921 7.58282 19.6067 7.48974 19.0184 7.5C18.0409 7.5 17.7652 7.5 15.2586 7.5C12.7521 7.5 12.4764 7.5 11.4989 7.5C10.9077 7.50576 10.3221 7.61579 9.76935 7.825C9.37073 7.96707 9.00699 8.19214 8.70231 8.48525C8.39763 8.77836 8.15899 9.1328 8.00225 9.525C7.82025 10.0817 7.73133 10.6645 7.73907 11.25C7.73907 12.225 7.73907 12.5 7.73907 15C7.73907 17.5 7.73907 17.775 7.73907 18.75C7.75149 19.339 7.8616 19.9219 8.06492 20.475C8.21413 20.8788 8.4494 21.2454 8.75448 21.5497C9.05956 21.854 9.42719 22.0887 9.83202 22.2375C10.3667 22.4336 10.9294 22.5434 11.4989 22.5625C12.4764 22.5625 12.7521 22.5625 15.2586 22.5625C17.7652 22.5625 18.0409 22.5625 19.0184 22.5625C19.6096 22.5567 20.1952 22.4467 20.7479 22.2375C21.1528 22.0887 21.5204 21.854 21.8255 21.5497C22.1306 21.2454 22.3658 20.8788 22.515 20.475C22.7248 19.9237 22.8351 19.3397 22.8409 18.75C22.8409 17.775 22.8409 17.5 22.8409 15C22.8409 12.5 22.8409 12.225 22.8409 11.25C22.8413 10.6597 22.7307 10.0747 22.515 9.525V9.5375ZM15.2586 19.775C14.6305 19.775 14.0086 19.6514 13.4285 19.4113C12.8483 19.1712 12.3214 18.8192 11.8778 18.3757C11.4343 17.9321 11.0828 17.4056 10.8436 16.8264C10.6044 16.2471 10.4821 15.6265 10.4837 15C10.4837 14.0551 10.7648 13.1314 11.2914 12.3459C11.818 11.5603 12.5665 10.9483 13.442 10.5873C14.3175 10.2263 15.2808 10.1324 16.2098 10.3177C17.1388 10.5029 17.9918 10.959 18.6609 11.628C19.3299 12.2971 19.7849 13.149 19.9682 14.0761C20.1515 15.0032 20.0549 15.9637 19.6906 16.836C19.3263 17.7083 18.7108 18.4532 17.9218 18.9763C17.1329 19.4995 16.2061 19.7775 15.2586 19.775ZM20.2717 11.1625C19.9947 11.1333 19.7383 11.0028 19.5519 10.7962C19.3656 10.5896 19.2625 10.3216 19.2625 10.0437C19.2625 9.76588 19.3656 9.49785 19.5519 9.29129C19.7383 9.08472 19.9947 8.95425 20.2717 8.925C20.5487 8.95425 20.8051 9.08472 20.9915 9.29129C21.1778 9.49785 21.2809 9.76588 21.2809 10.0437C21.2809 10.3216 21.1778 10.5896 20.9915 10.7962C20.8051 11.0028 20.5487 11.1333 20.2717 11.1625Z" fill="white"/>
</svg>
