<svg width="31" height="30" viewBox="0 0 31 30" fill="none" xmlns="http://www.w3.org/2000/svg">
<path d="M15.4966 2.5C13.0179 2.5 10.5948 3.23311 8.53381 4.60663C6.47283 5.98015 4.86649 7.93238 3.91792 10.2165C2.96936 12.5005 2.72117 15.0139 3.20475 17.4386C3.68832 19.8634 4.88194 22.0907 6.63466 23.8388C8.38738 25.587 10.6205 26.7775 13.0516 27.2598C15.4827 27.7421 18.0026 27.4946 20.2926 26.5485C22.5826 25.6024 24.54 24.0002 25.9171 21.9446C27.2942 19.889 28.0292 17.4723 28.0292 15C28.0293 13.3584 27.7053 11.7329 27.0755 10.2163C26.4457 8.69966 25.5226 7.32162 24.3588 6.16086C23.195 5.0001 21.8134 4.07936 20.2928 3.45123C18.7722 2.82309 17.1424 2.49986 15.4966 2.5ZM19.4813 21.4406C19.4344 21.5572 19.3631 21.6626 19.272 21.7495C19.1809 21.8364 19.0723 21.9028 18.9534 21.9445C18.8345 21.9861 18.708 22.0018 18.5825 21.9907C18.457 21.9796 18.3353 21.9418 18.2256 21.88L14.8234 19.2432L12.6398 21.2525C12.5891 21.2898 12.5298 21.3139 12.4674 21.3224C12.405 21.3309 12.3415 21.3236 12.2826 21.3012L12.7012 17.5656L12.7146 17.5762L12.7231 17.5024C12.7231 17.5024 18.8453 11.9431 19.0947 11.7062C19.3472 11.4699 19.2639 11.4187 19.2639 11.4187C19.2783 11.1305 18.8109 11.4187 18.8109 11.4187L10.6991 16.6237L7.32092 15.4762C7.32092 15.4762 6.80207 15.2906 6.75319 14.8825C6.70181 14.4775 7.33782 14.2575 7.33782 14.2575L20.7691 8.93561C20.7691 8.93561 21.8732 8.44496 21.8732 9.2575L19.4813 21.4406Z" fill="white"/>
</svg>
