<svg width="324" height="101" viewBox="0 0 324 101" fill="none" xmlns="http://www.w3.org/2000/svg">
<path d="M0 50.5C0 22.6096 22.6352 0 50.557 0H273.443C301.365 0 324 22.6096 324 50.5C324 78.3904 301.365 101 273.443 101H50.557C22.6352 101 0 78.3904 0 50.5Z" fill="white"/>
<path d="M84.1443 20.3738H108.777L139.116 51.5122L108.777 82.6506H84.1443L114.622 51.5122L84.1443 20.3738Z" fill="#1A3718"/>
<path d="M122.198 20.3738H146.831L177.169 51.5122L146.831 82.6506H122.198L152.676 51.5122L122.198 20.3738Z" fill="#1A3718"/>
<path d="M161.339 20.3738H185.972L216.31 51.5122L185.972 82.6506H161.339L191.817 51.5122L161.339 20.3738Z" fill="#1A3718" fill-opacity="0.5"/>
<path d="M200.48 20.3738H225.113L255.451 51.5122L225.113 82.6506H200.48L230.958 51.5122L200.48 20.3738Z" fill="#1A3718" fill-opacity="0.2"/>
</svg>
