<svg width="31" height="30" viewBox="0 0 31 30" fill="none" xmlns="http://www.w3.org/2000/svg">
<path d="M29.1647 12.1374C29.2267 10.3482 28.8344 8.57238 28.0242 6.97486C27.4746 6.31936 26.7117 5.877 25.8686 5.72486C22.3814 5.40926 18.8798 5.27991 15.3788 5.33736C11.8905 5.27731 8.40151 5.40248 4.92658 5.71236C4.23956 5.837 3.60378 6.15841 3.09681 6.63736C1.96888 7.67486 1.84355 9.44986 1.71822 10.9499C1.53639 13.6468 1.53639 16.3529 1.71822 19.0499C1.75448 19.8941 1.88051 20.7321 2.0942 21.5499C2.24531 22.1812 2.55105 22.7653 2.98402 23.2499C3.49443 23.7542 4.14502 24.0939 4.85138 24.2249C7.55331 24.5575 10.2758 24.6954 12.9976 24.6374C17.384 24.6999 21.2315 24.6374 25.7809 24.2874C26.5046 24.1644 27.1735 23.8243 27.6984 23.3124C28.0492 22.9623 28.3113 22.5337 28.4629 22.0624C28.9111 20.6906 29.1312 19.255 29.1146 17.8124C29.1647 17.1124 29.1647 12.8874 29.1647 12.1374ZM12.5464 18.5624V10.8249L19.9657 14.7124C17.8853 15.8624 15.1407 17.1624 12.5464 18.5624Z" fill="white"/>
</svg>
