<svg width="320" height="110" viewBox="0 0 320 110" fill="none" xmlns="http://www.w3.org/2000/svg">
<path d="M0 55C0 24.6243 24.6332 0 55.0198 0H264.98C295.367 0 320 24.6243 320 55C320 85.3757 295.367 110 264.98 110H55.0198C24.6332 110 0 85.3757 0 55Z" fill="#575B28"/>
<path d="M82.4064 25.3058H102.914L128.171 51.2491L102.914 77.1925H82.4064L107.78 51.2491L82.4064 25.3058Z" fill="white"/>
<path d="M116.557 25.3058H137.064L162.321 51.2491L137.064 77.1925H116.557L141.93 51.2491L116.557 25.3058Z" fill="white" fill-opacity="0.8"/>
<path d="M151.972 25.3058H172.479L197.736 51.2491L172.479 77.1925H151.972L177.345 51.2491L151.972 25.3058Z" fill="white" fill-opacity="0.5"/>
<path d="M187.387 25.3058H207.894L233.151 51.2491L207.894 77.1925H187.387L212.76 51.2491L187.387 25.3058Z" fill="white" fill-opacity="0.2"/>
</svg>
