<svg width="51" height="47" viewBox="0 0 51 47" fill="none" xmlns="http://www.w3.org/2000/svg">
<path d="M25.5 18.6433C24.4577 18.6433 23.4388 18.9281 22.5721 19.4618C21.7055 19.9954 21.03 20.754 20.6312 21.6414C20.2323 22.5288 20.1279 23.5053 20.3313 24.4474C20.5346 25.3895 21.0365 26.2549 21.7735 26.9341C22.5106 27.6134 23.4496 28.0759 24.4719 28.2633C25.4942 28.4507 26.5538 28.3545 27.5167 27.9869C28.4797 27.6193 29.3028 26.9969 29.8818 26.1982C30.4609 25.3995 30.77 24.4605 30.77 23.5C30.77 22.8622 30.6337 22.2306 30.3688 21.6414C30.104 21.0522 29.7158 20.5168 29.2264 20.0658C28.7371 19.6148 28.1561 19.2571 27.5167 19.013C26.8774 18.7689 26.1921 18.6433 25.5 18.6433ZM46.6012 13.8454C46.5901 12.3331 46.2879 10.8346 45.7087 9.41954C45.2822 8.38409 44.6223 7.44377 43.7725 6.66061C42.9227 5.87746 41.9023 5.26928 40.7787 4.87621C39.2433 4.34249 37.6173 4.06401 35.9762 4.05371C33.235 3.91663 32.4275 3.91663 25.5 3.91663C18.5725 3.91663 17.765 3.91663 15.0237 4.05371C13.3827 4.06401 11.7567 4.34249 10.2212 4.87621C9.09768 5.26928 8.07732 5.87746 7.22752 6.66061C6.37771 7.44377 5.71777 8.38409 5.29125 9.41954C4.71211 10.8346 4.40993 12.3331 4.39875 13.8454C4.25 16.3716 4.25 17.1158 4.25 23.5C4.25 29.8841 4.25 30.6283 4.39875 33.1545C4.42162 34.6722 4.7234 36.1753 5.29125 37.6C5.71588 38.6307 6.37527 39.5656 7.225 40.3416C8.07116 41.1295 9.0937 41.7377 10.2212 42.1237C11.7567 42.6574 13.3827 42.9359 15.0237 42.9462C17.765 43.0833 18.5725 43.0833 25.5 43.0833C32.4275 43.0833 33.235 43.0833 35.9762 42.9462C37.6173 42.9359 39.2433 42.6574 40.7787 42.1237C41.9063 41.7377 42.9288 41.1295 43.775 40.3416C44.6247 39.5656 45.2841 38.6307 45.7087 37.6C46.2873 36.178 46.5894 34.6732 46.6012 33.1545C46.75 30.6283 46.75 29.8841 46.75 23.5C46.75 17.1158 46.75 16.3716 46.6012 13.8454ZM41.2037 29.512C41.1356 30.7205 40.8557 31.9109 40.375 33.037C39.9625 33.9764 39.3492 34.8298 38.5716 35.5464C37.7941 36.2629 36.8681 36.8281 35.8487 37.2083C34.6152 37.6266 33.3163 37.858 32.0025 37.8937C30.3237 37.8937 29.8775 37.8937 25.5 37.8937C21.1225 37.8937 20.6762 37.8937 18.9975 37.8937C17.6837 37.858 16.3848 37.6266 15.1512 37.2083C14.0975 36.8474 13.1458 36.2717 12.3675 35.5241C11.5975 34.8216 11.0029 33.9729 10.625 33.037C10.1693 31.9014 9.92504 30.7031 9.9025 29.4925C9.9025 27.9454 9.9025 27.5341 9.9025 23.5C9.9025 19.4658 9.9025 19.0545 9.9025 17.5075C9.92504 16.2969 10.1693 15.0985 10.625 13.9629C11.0166 12.9917 11.6413 12.1148 12.4525 11.3975C13.2182 10.6917 14.1382 10.1443 15.1512 9.79163C16.3848 9.37334 17.6837 9.14187 18.9975 9.10621C20.6762 9.10621 21.1225 9.10621 25.5 9.10621C29.8775 9.10621 30.3237 9.10621 32.0025 9.10621C33.3163 9.14187 34.6152 9.37334 35.8487 9.79163C36.9025 10.1525 37.8542 10.7282 38.6325 11.4758C39.4025 12.1783 39.9971 13.0271 40.375 13.9629C40.8289 15.0997 41.0801 16.2967 41.1187 17.5075C41.1187 19.0545 41.1187 19.4658 41.1187 23.5C41.1187 27.5341 41.2675 27.9454 41.2037 29.4925V29.512ZM37.8037 14.942C37.5507 14.3095 37.1518 13.735 36.6345 13.2583C36.1173 12.7816 35.4939 12.414 34.8075 12.1808C33.865 11.8797 32.8724 11.7339 31.875 11.75C30.2175 11.75 29.75 11.75 25.5 11.75C21.25 11.75 20.7825 11.75 19.125 11.75C18.1226 11.759 17.1298 11.9314 16.1925 12.2591C15.5166 12.4817 14.8998 12.8343 14.3832 13.2935C13.8666 13.7527 13.462 14.308 13.1962 14.9225C12.8876 15.7946 12.7369 16.7077 12.75 17.625C12.75 19.1525 12.75 19.5833 12.75 23.5C12.75 27.4166 12.75 27.8475 12.75 29.375C12.7711 30.2977 12.9578 31.2109 13.3025 32.0775C13.5555 32.71 13.9544 33.2845 14.4717 33.7612C14.989 34.2379 15.6123 34.6055 16.2987 34.8387C17.2054 35.146 18.1595 35.3179 19.125 35.3479C20.7825 35.3479 21.25 35.3479 25.5 35.3479C29.75 35.3479 30.2175 35.3479 31.875 35.3479C32.8774 35.3388 33.8702 35.1665 34.8075 34.8387C35.4939 34.6055 36.1173 34.2379 36.6345 33.7612C37.1518 33.2845 37.5507 32.71 37.8037 32.0775C38.1594 31.2137 38.3464 30.2988 38.3562 29.375C38.3562 27.8475 38.3562 27.4166 38.3562 23.5C38.3562 19.5833 38.3562 19.1525 38.3562 17.625C38.3569 16.7002 38.1695 15.7836 37.8037 14.9225V14.942ZM25.5 30.9808C24.435 30.9808 23.3804 30.7872 22.3968 30.411C21.4131 30.0348 20.5196 29.4834 19.7676 28.7885C19.0155 28.0936 18.4196 27.2688 18.0139 26.3613C17.6083 25.4538 17.401 24.4814 17.4037 23.5C17.4038 22.0196 17.8804 20.5724 18.7733 19.3418C19.6662 18.1112 20.9352 17.1523 22.4197 16.5867C23.9043 16.0211 25.5375 15.8741 27.1127 16.1643C28.6879 16.4546 30.1343 17.169 31.2687 18.2172C32.4031 19.2653 33.1745 20.6001 33.4854 22.0526C33.7962 23.505 33.6324 25.0097 33.0147 26.3763C32.3971 27.7429 31.3533 28.9099 30.0156 29.7296C28.6779 30.5492 27.1064 30.9847 25.5 30.9808ZM34 17.4879C33.5303 17.4421 33.0955 17.2376 32.7796 16.914C32.4636 16.5904 32.2888 16.1705 32.2888 15.7352C32.2888 15.2998 32.4636 14.8799 32.7796 14.5563C33.0955 14.2327 33.5303 14.0283 34 13.9825C34.4697 14.0283 34.9045 14.2327 35.2204 14.5563C35.5364 14.8799 35.7112 15.2998 35.7112 15.7352C35.7112 16.1705 35.5364 16.5904 35.2204 16.914C34.9045 17.2376 34.4697 17.4421 34 17.4879Z" fill="white"/>
</svg>
