<svg width="50" height="47" viewBox="0 0 50 47" fill="none" xmlns="http://www.w3.org/2000/svg">
<path d="M24.9881 3.91663C20.8677 3.91663 16.8398 5.06517 13.4137 7.21701C9.98772 9.36886 7.31746 12.4274 5.74064 16.0057C4.16381 19.5841 3.75124 23.5217 4.5551 27.3205C5.35896 31.1193 7.34314 34.6087 10.2567 37.3475C13.1703 40.0862 16.8825 41.9514 20.9237 42.707C24.965 43.4626 29.1539 43.0748 32.9607 41.5926C36.7675 40.1104 40.0212 37.6003 42.3104 34.3799C44.5996 31.1594 45.8215 27.3732 45.8215 23.5C45.8217 20.9282 45.283 18.3815 44.2361 16.0055C43.1892 13.6294 41.6546 11.4705 39.72 9.65198C37.7854 7.83345 35.4887 6.39096 32.961 5.40688C30.4333 4.42281 27.7241 3.91641 24.9881 3.91663ZM31.6121 33.5902C31.5341 33.773 31.4155 33.938 31.2641 34.0741C31.1128 34.2103 30.9322 34.3144 30.7345 34.3796C30.5368 34.4448 30.3266 34.4695 30.1179 34.4521C29.9093 34.4346 29.707 34.3755 29.5246 34.2786L23.869 30.1477L20.2392 33.2955C20.155 33.354 20.0565 33.3917 19.9527 33.405C19.8489 33.4183 19.7433 33.4069 19.6455 33.3718L20.3413 27.5194L20.3636 27.536L20.3778 27.4205C20.3778 27.4205 30.5549 18.7108 30.9695 18.3397C31.3892 17.9695 31.2507 17.8893 31.2507 17.8893C31.2746 17.4378 30.4975 17.8893 30.4975 17.8893L17.0131 26.0438L11.3975 24.2461C11.3975 24.2461 10.535 23.9553 10.4538 23.3159C10.3684 22.6814 11.4256 22.3367 11.4256 22.3367L33.7527 13.9991C33.7527 13.9991 35.5881 13.2304 35.5881 14.5034L31.6121 33.5902Z" fill="white"/>
</svg>
