<svg width="50" height="47" viewBox="0 0 50 47" fill="none" xmlns="http://www.w3.org/2000/svg">
<path d="M47.9166 19.0154C48.0197 16.2124 47.3675 13.4303 46.0208 10.9275C45.1071 9.90058 43.839 9.20755 42.4375 8.9692C36.6406 8.47477 30.8198 8.27212 25 8.36211C19.2013 8.26803 13.4015 8.46414 7.62498 8.94961C6.48293 9.14489 5.42605 9.64843 4.58331 10.3988C2.70831 12.0242 2.49997 14.805 2.29164 17.155C1.98937 21.3803 1.98937 25.6198 2.29164 29.845C2.35191 31.1677 2.56142 32.4806 2.91664 33.7617C3.16784 34.7508 3.67606 35.6659 4.39581 36.425C5.24428 37.2151 6.32578 37.7473 7.49997 37.9525C11.9915 38.4737 16.5171 38.6896 21.0416 38.5988C28.3333 38.6967 34.7291 38.5988 42.2916 38.0504C43.4947 37.8578 44.6066 37.325 45.4791 36.5229C46.0624 35.9744 46.4981 35.3031 46.75 34.5646C47.495 32.4156 47.861 30.1664 47.8333 27.9063C47.9166 26.8096 47.9166 20.1904 47.9166 19.0154ZM20.2916 29.0813V16.9592L32.625 23.0496C29.1666 24.8513 24.6041 26.8879 20.2916 29.0813Z" fill="white"/>
</svg>
