<svg width="61" height="78" viewBox="0 0 61 78" fill="none" xmlns="http://www.w3.org/2000/svg">
<path d="M52.1388 0H11.9405C9.6689 0 7.49037 0.902378 5.88413 2.50862C4.27788 4.11487 3.3755 6.2934 3.3755 8.56498V16.3306C2.61831 16.3306 1.89213 16.6314 1.35672 17.1668C0.821304 17.7022 0.520508 18.4284 0.520508 19.1855C0.520508 19.9427 0.821304 20.6689 1.35672 21.2043C1.89213 21.7397 2.61831 22.0405 3.3755 22.0405V34.7167C2.61831 34.7167 1.89213 35.0175 1.35672 35.5529C0.821304 36.0883 0.520508 36.8145 0.520508 37.5717C0.520508 38.3289 0.821304 39.0551 1.35672 39.5905C1.89213 40.1259 2.61831 40.4267 3.3755 40.4267V53.1029C2.61831 53.1029 1.89213 53.4037 1.35672 53.9391C0.821304 54.4745 0.520508 55.2007 0.520508 55.9578C0.520508 56.715 0.821304 57.4412 1.35672 57.9766C1.89213 58.512 2.61831 58.8128 3.3755 58.8128V69.4334C3.3755 71.705 4.27788 73.8835 5.88413 75.4898C7.49037 77.096 9.6689 77.9984 11.9405 77.9984H52.1388C54.4103 77.9984 56.5889 77.096 58.1951 75.4898C59.8014 73.8835 60.7038 71.705 60.7038 69.4334V8.56498C60.7038 6.2934 59.8014 4.11487 58.1951 2.50862C56.5889 0.902378 54.4103 0 52.1388 0ZM54.9938 69.4334C54.9938 70.1906 54.693 70.9168 54.1576 71.4522C53.6221 71.9876 52.896 72.2884 52.1388 72.2884H11.9405C11.1833 72.2884 10.4571 71.9876 9.9217 71.4522C9.38628 70.9168 9.08548 70.1906 9.08548 69.4334V58.8128C9.84268 58.8128 10.5689 58.512 11.1043 57.9766C11.6397 57.4412 11.9405 56.715 11.9405 55.9578C11.9405 55.2007 11.6397 54.4745 11.1043 53.9391C10.5689 53.4037 9.84268 53.1029 9.08548 53.1029V40.4267C9.84268 40.4267 10.5689 40.1259 11.1043 39.5905C11.6397 39.0551 11.9405 38.3289 11.9405 37.5717C11.9405 36.8145 11.6397 36.0883 11.1043 35.5529C10.5689 35.0175 9.84268 34.7167 9.08548 34.7167V22.0405C9.84268 22.0405 10.5689 21.7397 11.1043 21.2043C11.6397 20.6689 11.9405 19.9427 11.9405 19.1855C11.9405 18.4284 11.6397 17.7022 11.1043 17.1668C10.5689 16.6314 9.84268 16.3306 9.08548 16.3306V8.56498C9.08548 7.80779 9.38628 7.08161 9.9217 6.54619C10.4571 6.01078 11.1833 5.70998 11.9405 5.70998H52.1388C52.896 5.70998 53.6221 6.01078 54.1576 6.54619C54.693 7.08161 54.9938 7.80779 54.9938 8.56498V69.4334Z" fill="#2F5325"/>
<path d="M47.144 62.2673H35.981C35.2238 62.2673 34.4976 62.5681 33.9622 63.1035C33.4268 63.639 33.126 64.3651 33.126 65.1223C33.126 65.8795 33.4268 66.6057 33.9622 67.1411C34.4976 67.6765 35.2238 67.9773 35.981 67.9773H47.144C47.9012 67.9773 48.6274 67.6765 49.1628 67.1411C49.6982 66.6057 49.999 65.8795 49.999 65.1223C49.999 64.3651 49.6982 63.639 49.1628 63.1035C48.6274 62.5681 47.9012 62.2673 47.144 62.2673Z" fill="#2F5325"/>
</svg>
