<?xml version="1.0" encoding="UTF-8"?>
<svg version="1.1" xmlns="http://www.w3.org/2000/svg" width="324" height="101">
<path d="M0 0 C2.37960631 -0.00378738 4.75921042 -0.00929087 7.1388092 -0.01637268 C13.57460969 -0.03028816 20.01014167 -0.01918542 26.44592714 -0.00266147 C32.50822247 0.01151587 38.57051474 0.00557284 44.63282029 0.00220882 C56.64409245 -0.00365717 68.65525946 0.01045331 80.66650391 0.03515625 C92.30228615 0.05908404 103.93792803 0.06615473 115.57373047 0.05566406 C128.26980784 0.04423785 140.96582045 0.04234497 153.66189706 0.05676216 C155.01726746 0.05828788 156.37263786 0.05980823 157.72800827 0.06132317 C158.728106 0.06245989 158.728106 0.06245989 159.74840773 0.06361957 C164.43115751 0.06834841 169.11386886 0.06641149 173.79661942 0.06225777 C180.10536944 0.0574763 186.41392586 0.06763839 192.72263908 0.08921242 C195.0340745 0.094764 197.34552858 0.0952606 199.65696526 0.09025955 C202.81909999 0.0842772 205.98064865 0.09686867 209.14273071 0.11402893 C210.0509173 0.10801889 210.95910388 0.10200884 211.89481127 0.09581667 C224.82843553 0.2228972 237.12714319 5.5727114 246.57958984 14.40405273 C257.89569368 26.83093977 261.35661536 39.46453803 260.80615234 55.84936523 C260.10237536 68.54509843 253.91297666 80.92077836 244.48974609 89.50170898 C229.36632987 101.46435316 215.63536049 102.08809664 196.97949219 102.00341797 C194.59988588 102.00720535 192.22028177 102.01270883 189.84068298 102.01979065 C183.4048825 102.03370613 176.96935052 102.02260339 170.53356504 102.00607944 C164.47126972 101.9919021 158.40897745 101.99784513 152.34667189 102.00120915 C140.33539974 102.00707514 128.32423273 101.99296466 116.31298828 101.96826172 C104.67720603 101.94433393 93.04156416 101.93726324 81.40576172 101.94775391 C68.70968434 101.95918012 56.01367174 101.96107299 43.31759512 101.94665581 C41.96222473 101.94513009 40.60685433 101.94360974 39.25148392 101.9420948 C38.25138619 101.94095808 38.25138619 101.94095808 37.23108446 101.9397984 C32.54833468 101.93506956 27.86562333 101.93700648 23.18287277 101.9411602 C16.87412275 101.94594167 10.56556632 101.93577958 4.2568531 101.91420555 C1.94541769 101.90865397 -0.36603639 101.90815737 -2.67747307 101.91315842 C-5.8396078 101.91914077 -9.00115646 101.9065493 -12.16323853 101.88938904 C-13.07142511 101.89539908 -13.97961169 101.90140913 -14.91531909 101.9076013 C-27.84894334 101.78052077 -40.147651 96.43070657 -49.60009766 87.59936523 C-60.91620149 75.1724782 -64.37712318 62.53887994 -63.82666016 46.15405273 C-63.12288317 33.45831954 -56.93348447 21.08263961 -47.51025391 12.50170898 C-32.38683769 0.5390648 -18.6558683 -0.08467867 0 0 Z " fill="#FEFEFE" transform="translate(63.51025390625,-0.501708984375)"/>
<path d="M0 0 C7.77637633 -2.14361519 16.42193744 -3.3880947 24 0 C35.63051307 7.66417195 44.97778817 19.52977886 54 30 C51.87071762 34.54424448 48.71203069 37.84186384 45.26660156 41.4206543 C42.16703187 44.64201192 39.25862452 47.89584735 36.4921875 51.41015625 C30.99755181 58.04689435 26.60301639 63.1666857 17.640625 64.01171875 C11.71774416 64.16270609 5.87216644 63.76491146 0 63 C1.65236651 58.70932454 4.8905207 55.8570447 8.1015625 52.703125 C8.69802582 52.10949158 9.29448914 51.51585815 9.9090271 50.90423584 C11.8096981 49.01473373 13.71721474 47.13231608 15.625 45.25 C16.91712468 43.96790935 18.20879676 42.68536239 19.5 41.40234375 C22.66144479 38.26291568 25.8290461 35.12982199 29 32 C28.06782632 30.89968651 27.13377809 29.800961 26.19897461 28.70288086 C25.4190641 27.78483925 25.4190641 27.78483925 24.62339783 26.84825134 C22.0739936 23.94573434 19.32403868 21.26122045 16.5625 18.5625 C12.29749388 14.35620884 8.18768082 10.11048431 4.3671875 5.48828125 C2.8737203 3.74429528 2.8737203 3.74429528 0 2 C0 1.34 0 0.68 0 0 Z " fill="#D2D8D2" transform="translate(201,20)"/>
<path d="M0 0 C19.14130458 -2.85145485 19.14130458 -2.85145485 26.79052734 1.63769531 C32.63348627 6.39615301 37.31190601 12.13911618 42 18 C43.80463348 20.095089 45.63090762 22.16931005 47.4609375 24.2421875 C49.69006604 26.78814649 51.84660976 29.38983001 54 32 C53.35933594 32.6290625 52.71867187 33.258125 52.05859375 33.90625 C46.19772196 39.69510013 46.19772196 39.69510013 40.6875 45.8125 C40.12289062 46.43769531 39.55828125 47.06289062 38.9765625 47.70703125 C37.88439356 48.97403356 36.80998307 50.26011031 35.82324219 51.61083984 C31.85867493 57.02749316 27.9362528 62.22281558 21.05957031 63.58056641 C14.01608379 64.127355 7.01772127 63.72502439 0 63 C1.65236651 58.70932454 4.8905207 55.8570447 8.1015625 52.703125 C8.69802582 52.10949158 9.29448914 51.51585815 9.9090271 50.90423584 C11.8096981 49.01473373 13.71721474 47.13231608 15.625 45.25 C16.91712468 43.96790935 18.20879676 42.68536239 19.5 41.40234375 C22.66144479 38.26291568 25.8290461 35.12982199 29 32 C25.51902791 27.86259795 21.98366394 23.86047371 18.14453125 20.046875 C16.84032227 18.7475 16.84032227 18.7475 15.50976562 17.421875 C14.61966797 16.54015625 13.72957031 15.6584375 12.8125 14.75 C11.91080078 13.8528125 11.00910156 12.955625 10.08007812 12.03125 C8.41496866 10.37481943 6.74882955 8.71942275 5.08129883 7.06542969 C4.39447021 6.38383789 3.7076416 5.70224609 3 5 C2.41307373 4.45504883 1.82614746 3.91009766 1.22143555 3.34863281 C0 2 0 2 0 0 Z " fill="#8F9D8E" transform="translate(162,20)"/>
<path d="M0 0 C21.84427749 -2.25680578 21.84427749 -2.25680578 28.3125 2.71875 C31.11253742 5.37135641 33.49991152 8.29000221 35.7800293 11.39526367 C37.62764777 13.82560111 39.81751491 15.87074626 42 18 C44.12680468 20.25003818 46.21936317 22.53115888 48.3125 24.8125 C48.86228516 25.40998047 49.41207031 26.00746094 49.97851562 26.62304688 C51.31996978 28.08114922 52.66012065 29.5404504 54 31 C50.53440626 35.19519242 46.93494625 39.11235081 43.0625 42.9375 C39.48681394 46.47036347 36.09016598 50.06484224 32.86328125 53.91796875 C32.24839844 54.60503906 31.63351563 55.29210937 31 56 C30.34318237 56.8811145 30.34318237 56.8811145 29.6730957 57.7800293 C27.09299009 60.88833932 25.22811094 62.75446303 21.18530273 63.56274414 C17.95103943 63.68806393 14.79421717 63.61203191 11.5625 63.4375 C10.44939453 63.40591797 9.33628906 63.37433594 8.18945312 63.34179688 C5.45687928 63.25970238 2.72984059 63.14495011 0 63 C1.6234455 58.80332104 4.73356793 56.09941272 7.91796875 53.0625 C9.10132904 51.9092825 10.28425908 50.75562339 11.46679688 49.6015625 C13.33180981 47.79249749 15.20043447 45.98761206 17.0769043 44.19042969 C18.88916794 42.45046695 20.68561163 40.69538792 22.48046875 38.9375 C23.04807419 38.4019751 23.61567963 37.8664502 24.20048523 37.31469727 C25.95284887 35.64344285 25.95284887 35.64344285 28 33 C27.53858552 28.35504683 24.19045921 25.84908202 20.99609375 22.7734375 C20.39821548 22.18454742 19.80033722 21.59565735 19.18434143 20.98892212 C17.27572549 19.11031885 15.35752408 17.24193696 13.4375 15.375 C11.51481783 13.50005504 9.59442366 11.6229786 7.6799469 9.73965454 C6.48861882 8.56817439 5.29238012 7.40166397 4.09092712 6.24057007 C2.68935389 4.8646481 1.3391599 3.43673921 0 2 C0 1.34 0 0.68 0 0 Z " fill="#1F3B1D" transform="translate(123,20)"/>
<path d="M0 0 C22.13173414 -1.90446382 22.13173414 -1.90446382 27.796875 2.16796875 C30.52718323 4.96383523 32.78312886 7.78596482 35 11 C36.12731277 12.32844126 37.27151281 13.64287103 38.4375 14.9375 C38.9634375 15.55496094 39.489375 16.17242187 40.03125 16.80859375 C44.46654433 21.74549875 49.27384037 26.34368509 54 31 C50.25464872 35.57765156 46.26589844 39.78614797 42.0625 43.9375 C38.06568454 47.8852522 34.21166834 51.87569134 30.59765625 56.18359375 C30.07042969 56.78300781 29.54320313 57.38242188 29 58 C28.36578125 58.89203125 27.7315625 59.7840625 27.078125 60.703125 C22.26703374 64.2931271 17.5135627 63.53382909 11.6875 63.3125 C10.56537109 63.28994141 9.44324219 63.26738281 8.28710938 63.24414062 C5.52337464 63.18533776 2.76237446 63.10320401 0 63 C1.6234455 58.80332104 4.73356793 56.09941272 7.91796875 53.0625 C9.10132904 51.9092825 10.28425908 50.75562339 11.46679688 49.6015625 C13.33180981 47.79249749 15.20043447 45.98761206 17.0769043 44.19042969 C18.88916794 42.45046695 20.68561163 40.69538792 22.48046875 38.9375 C23.04807419 38.4019751 23.61567963 37.8664502 24.20048523 37.31469727 C25.95284887 35.64344285 25.95284887 35.64344285 28 33 C27.53858552 28.35504683 24.19045921 25.84908202 20.99609375 22.7734375 C20.39821548 22.18454742 19.80033722 21.59565735 19.18434143 20.98892212 C17.27572549 19.11031885 15.35752408 17.24193696 13.4375 15.375 C11.51481783 13.50005504 9.59442366 11.6229786 7.6799469 9.73965454 C6.48861882 8.56817439 5.29238012 7.40166397 4.09092712 6.24057007 C2.68935389 4.8646481 1.3391599 3.43673921 0 2 C0 1.34 0 0.68 0 0 Z " fill="#1E3B1C" transform="translate(85,20)"/>
</svg>
