<svg width="69" height="65" viewBox="0 0 69 65" fill="none" xmlns="http://www.w3.org/2000/svg">
<path d="M12.629 49.0373L12.629 49.0373L11.5255 54.8224C11.5255 54.8224 11.5255 54.8224 11.5255 54.8224C11.3834 55.5671 11.704 56.129 12.1471 56.2976C12.3693 56.3821 12.616 56.3625 12.8251 56.2152C13.0322 56.0693 13.1878 55.8091 13.2586 55.4385L13.2587 55.4384L14.3621 49.6533C14.5034 48.9139 14.1819 48.3537 13.7397 48.1842C13.5179 48.0992 13.2713 48.1174 13.0621 48.2636C12.855 48.4083 12.6995 48.6676 12.629 49.0373Z" fill="#2F5325" stroke="#2F5325" stroke-width="0.25"/>
<path d="M13.7067 45.355L13.7067 45.3547L14.8822 41.0108C12.8297 39.231 11.856 36.3088 13.3103 33.5708H11.544L3.76562 61.8262H67.5699C67.977 61.8262 68.2914 61.9798 68.5027 62.2174C68.712 62.4528 68.8139 62.763 68.8137 63.0691C68.8136 63.3752 68.7114 63.6854 68.5021 63.9207C68.2907 64.1582 67.9765 64.3119 67.5699 64.3119H2.12446C1.93198 64.3118 1.74205 64.2678 1.56943 64.1832C1.3968 64.0986 1.24606 63.9756 1.12899 63.8238C1.0119 63.672 0.931649 63.4954 0.894534 63.3078C0.857418 63.1201 0.864458 62.9265 0.9151 62.742L0.915126 62.7419L9.37789 32.0008L9.37792 32.0007C9.52732 31.4596 10.0228 31.0851 10.5873 31.0851H15.3694C15.9981 30.5307 16.6569 30.0394 17.2753 29.5783C17.3956 29.4886 17.5143 29.4001 17.631 29.3124C18.3626 28.7629 19.011 28.2507 19.4715 27.707C20.4481 26.5531 21.5988 24.8727 22.8576 22.9943C23.0529 22.7028 23.2508 22.4067 23.4509 22.1072C24.5391 20.4785 25.6949 18.7487 26.8748 17.1226C28.2714 15.1979 29.7062 13.4122 31.1089 12.1068C32.5067 10.8058 33.8955 9.9598 35.1993 9.9598C35.7401 9.9598 36.9014 10.0752 38.242 10.3163C39.5571 10.5529 41.0541 10.912 42.3171 11.4069L53.145 0.706538C53.145 0.706522 53.145 0.706504 53.145 0.706487C53.6158 0.240763 54.4047 0.220886 54.8952 0.688498L54.8952 0.68846L54.8092 0.779189L54.8955 0.68874L13.7067 45.355ZM13.7067 45.355C13.4649 46.2576 14.2879 47.1177 15.2261 46.8813L15.2261 46.8813M13.7067 45.355L15.2261 46.8813M15.2261 46.8813L22.8508 44.9582C23.1052 44.9168 23.3406 44.7981 23.5241 44.618L23.5242 44.618M15.2261 46.8813L23.5242 44.618M23.5242 44.618L25.2027 42.9689C26.8419 44.7963 29.5079 45.8082 32.3109 44.9379C33.7329 47.301 35.9246 48.407 38.3057 48.407C40.4546 48.407 42.5526 47.3879 43.8435 45.5887C45.4077 45.7466 47.1342 45.3427 48.6025 44.7451C50.0379 44.1609 51.2489 43.3823 51.8298 42.7373C52.0619 42.8394 52.2917 42.9428 52.5227 43.0467C53.7784 43.6117 55.0708 44.1932 56.9754 44.6681C59.2724 45.2408 62.4572 45.6584 67.5544 45.718H67.5558H67.5688C67.9735 45.718 68.287 45.5655 68.4985 45.3295C68.708 45.0957 68.8112 44.7872 68.8129 44.4821C68.8147 44.1771 68.715 43.8675 68.5082 43.6313C68.2994 43.3929 67.9878 43.2369 67.5832 43.2323C60.1118 43.1458 56.1869 42.0085 53.2314 40.7178C52.3668 40.3402 51.5806 39.9467 50.8097 39.5609C48.9515 38.631 47.1823 37.7457 44.6185 37.234L44.6111 37.2326M23.5242 44.618L44.6111 37.2326M44.6111 37.2326L44.6036 37.232M44.6111 37.2326L44.6036 37.232M44.6036 37.232C44.6035 37.232 44.6035 37.232 44.6035 37.232C43.918 37.099 42.8249 37.0519 41.5176 37.0478C40.2027 37.0436 38.6603 37.0831 37.0777 37.1259L36.792 37.1336C33.7134 37.217 30.5312 37.3032 28.5793 37.1018C26.4589 36.5919 25.0388 34.5739 25.3129 32.4986L25.3139 32.4904M44.6036 37.232C44.606 37.2325 44.6084 37.2329 44.6108 37.2334L44.5988 37.2944L44.5867 37.3561L25.3139 32.4904M25.3139 32.4904V32.4825M25.3139 32.4904V32.4825M25.3139 32.4825C25.4568 31.6294 25.801 30.9137 26.1845 30.3931C26.377 30.1318 26.5783 29.9211 26.7672 29.7674C26.953 29.6164 27.1205 29.5255 27.2512 29.4907L27.2703 29.4894L27.3615 29.4831C27.4422 29.4776 27.5626 29.4692 27.7213 29.458C28.0387 29.4355 28.5094 29.4015 29.123 29.3555C30.3502 29.2635 32.1488 29.1234 34.4344 28.9312C39.0055 28.5466 45.5251 27.9532 53.319 27.1178C53.7234 27.0744 54.0193 26.8885 54.2037 26.6302C54.3863 26.3743 54.4539 26.0555 54.4206 25.7515C54.3873 25.4475 54.2522 25.1504 54.0188 24.9386C53.7832 24.7249 53.4544 24.6047 53.0503 24.6463L53.0497 24.6464M25.3139 32.4825L53.0497 24.6464M53.0497 24.6464L42.7212 25.7533M53.0497 24.6464L42.7212 25.7533M42.7212 25.7533C46.6855 21.8576 49.1542 19.4284 50.3486 18.2529C50.675 17.9318 50.9062 17.7043 51.0468 17.566C53.7623 18.2594 57.858 19.5522 61.2892 20.6767C63.0185 21.2434 64.578 21.767 65.7052 22.1489C66.2687 22.3399 66.7242 22.4954 67.0387 22.6032C67.196 22.6571 67.3181 22.6991 67.4008 22.7276L67.4948 22.76L67.5188 22.7682L67.5248 22.7703L67.5263 22.7708L67.5267 22.771C67.5268 22.771 67.5268 22.771 67.5677 22.6529L42.7212 25.7533ZM21.3909 29.305C22.2305 28.3132 23.3145 26.7581 24.5162 24.9897C24.8113 24.5554 25.1137 24.108 25.4214 23.6527C26.3686 22.2512 27.3672 20.7737 28.3652 19.3659C29.6879 17.5004 31.0059 15.7629 32.197 14.4927C32.7926 13.8575 33.3532 13.3428 33.8638 12.9877C34.3772 12.6308 34.8254 12.4455 35.1993 12.4455C36.0052 12.4455 38.3608 12.7611 40.3444 13.3567C34.4854 19.147 32.6724 20.9432 30.8551 22.7351C28.5807 24.9776 26.2997 27.2133 16.0728 37.2629C15.9122 37.4205 15.8187 37.6079 15.7526 37.7985C15.7193 37.8946 15.6916 37.9963 15.6659 38.0969C15.2041 37.3501 14.8618 36.3055 15.3464 35.1086L15.2305 35.0617L15.3464 35.1086C15.82 33.9388 16.8682 33.0193 18.0427 32.1213C18.2659 31.9507 18.4937 31.7808 18.7225 31.6102C19.6868 30.8911 20.6682 30.1594 21.3909 29.305ZM21.3909 29.305L21.2955 29.2242L21.3909 29.3049C21.3909 29.3049 21.3909 29.305 21.3909 29.305ZM60.7464 6.23375L60.6621 6.326L60.748 6.23527L60.7473 6.23455C60.747 6.23428 60.7467 6.23402 60.7464 6.23375ZM53.1135 15.5347C53.0669 15.5221 53.0203 15.5095 52.9736 15.497L52.8701 15.5986C52.9168 15.6112 52.9635 15.6237 53.0102 15.6363L53.1135 15.5347ZM32.2881 42.2804L32.2881 42.2803L32.2774 42.2858C31.4059 42.7314 30.4069 42.8694 29.4455 42.6768C28.5221 42.492 27.6865 42.0129 27.0652 41.3146L28.8067 39.6035C29.5506 39.6375 31.0925 39.6724 34.4484 39.7083C34.291 40.2343 34.0317 40.7255 33.6847 41.1544C33.305 41.6236 32.829 42.0074 32.2881 42.2804ZM18.6407 38.2382L22.5568 42.0692L22.0123 42.605L16.682 43.9491L18.0769 38.7925L18.6407 38.2382ZM20.4213 36.489C21.2279 35.6962 21.7655 35.1665 22.127 34.8104C22.4446 34.4975 22.6262 34.3186 22.7346 34.2131C22.8126 34.1372 22.8505 34.1014 22.8724 34.0821C23.1884 35.8697 24.3942 37.8457 25.7941 38.8887L24.3374 40.32L20.4213 36.489ZM34.5371 43.7876C35.837 42.7832 36.7206 41.3412 37.02 39.7346L41.7489 39.7814C42.0133 40.3954 42.2543 41.0523 42.3596 41.7009C42.4689 42.3742 42.4304 43.03 42.1278 43.6176C40.44 46.6686 36.3063 46.6581 34.5371 43.7876ZM49.2654 41.6156C48.0341 42.4332 46.2778 43.0301 44.8931 43.1271C45.0196 42.0656 44.7868 40.7877 44.4526 39.7776C44.5085 39.788 44.5732 39.8024 44.6465 39.821C44.8172 39.8645 45.0246 39.9281 45.2576 40.0065C45.7232 40.1634 46.2847 40.3775 46.848 40.6027C47.8107 40.9876 48.7741 41.4029 49.2654 41.6156ZM38.7479 26.1606C37.3891 26.2278 33.4954 26.4293 30.4169 26.6671C30.9306 26.1623 31.1977 25.9005 31.4646 25.6384C32.604 24.5192 33.738 23.3944 54.0483 3.32298L58.0876 7.14983C52.404 12.7352 50.4528 14.6542 48.6013 16.4752C46.6414 18.4027 44.7932 20.2205 38.7479 26.1606Z" fill="#2F5325" stroke="#2F5325" stroke-width="0.25"/>
</svg>
