<svg width="65" height="66" viewBox="0 0 65 66" fill="none" xmlns="http://www.w3.org/2000/svg">
<path d="M41.2145 26.7299V26.7298C41.2145 22.106 37.4521 18.3436 32.8283 18.3436C28.2044 18.3436 24.442 22.106 24.442 26.7298V26.7299C24.4425 27.9875 24.7264 29.2288 25.2724 30.3616C25.7308 31.3124 26.3639 32.1663 27.1371 32.8795C22.5328 33.4089 18.8598 37.0106 18.2235 41.582C16.7056 39.0024 15.9018 36.0599 15.9018 33.058C15.9018 23.7246 23.4949 16.1315 32.8283 16.1315C42.1617 16.1315 49.7547 23.7246 49.7547 33.058C49.7547 36.0599 48.9509 39.0024 47.433 41.582C46.7967 37.0113 43.1237 33.409 38.5194 32.8795C39.2926 32.1663 39.9258 31.3124 40.3841 30.3616C40.9302 29.2288 41.214 27.9875 41.2145 26.7299ZM32.8283 13.8235C22.2216 13.8235 13.5938 22.4513 13.5938 33.058C13.5938 37.8758 15.3867 42.2731 18.3222 45.6503C18.3858 45.7459 18.4635 45.8313 18.5528 45.9035C22.0748 49.8135 27.1606 52.2925 32.8283 52.2925C38.4959 52.2925 43.5817 49.8144 47.1038 45.9035C47.193 45.8313 47.2707 45.7459 47.3343 45.6503C50.2698 42.2731 52.0628 37.8758 52.0628 33.058C52.0628 22.4513 43.4349 13.8235 32.8283 13.8235ZM32.8283 49.9845C27.9259 49.9845 23.5164 47.8771 20.4219 44.532V42.9932C20.4219 38.6455 23.9604 35.107 28.3081 35.107H32.6584C32.675 35.1077 32.6917 35.1089 32.7136 35.1105C32.7178 35.1109 32.7222 35.1112 32.7267 35.1115C32.7548 35.1136 32.7903 35.116 32.8283 35.116C32.8662 35.116 32.9017 35.1136 32.9298 35.1115C32.9344 35.1112 32.9387 35.1109 32.9429 35.1105C32.9648 35.1089 32.9815 35.1077 32.9981 35.107H37.3484C41.6961 35.107 45.2346 38.6455 45.2346 42.9932V44.532C42.1401 47.8771 37.7306 49.9845 32.8283 49.9845ZM38.9064 26.7298C38.9064 30.0259 36.267 32.7122 32.9905 32.799H32.666C29.3896 32.7131 26.7501 30.0268 26.7501 26.7298C26.7501 23.3784 29.4768 20.6517 32.8283 20.6517C36.1797 20.6517 38.9064 23.3784 38.9064 26.7298Z" fill="#2F5325" stroke="#2F5325" stroke-width="0.5"/>
<mask id="path-2-outside-1_1192_25" maskUnits="userSpaceOnUse" x="0.1875" y="0.417145" width="65" height="65" fill="black">
<rect fill="white" x="0.1875" y="0.417145" width="65" height="65"/>
<path d="M63.6556 29.4464L57.7876 28.8597C57.1538 25.0816 55.6697 21.497 53.4473 18.3766L57.1801 13.814C57.3219 13.6405 57.3943 13.4205 57.3831 13.1967C57.3719 12.9728 57.2779 12.7611 57.1195 12.6026L53.2837 8.76686C53.1252 8.6084 52.9135 8.51447 52.6897 8.50327C52.4658 8.49208 52.2458 8.56443 52.0723 8.70629L47.5097 12.4399C44.3894 10.2173 40.8048 8.73283 37.0266 8.09879L36.4399 2.23167C36.4177 2.00852 36.3134 1.80158 36.1472 1.65106C35.9809 1.50053 35.7647 1.41716 35.5404 1.41714H30.1163C29.8922 1.41714 29.676 1.50038 29.5098 1.65072C29.3436 1.80106 29.2392 2.00778 29.2168 2.23077L28.6301 8.09879C24.852 8.73256 21.2674 10.2167 18.147 12.439L13.5844 8.70629C13.411 8.56424 13.1909 8.49176 12.967 8.50296C12.7431 8.51415 12.5314 8.60822 12.373 8.76686L8.53722 12.6026C8.37876 12.7611 8.28482 12.9728 8.27363 13.1967C8.26244 13.4205 8.33479 13.6405 8.47665 13.814L12.2103 18.3766C9.98761 21.4969 8.50319 25.0816 7.86914 28.8597L2.00203 29.4464C1.77887 29.4686 1.57194 29.573 1.42141 29.7392C1.27089 29.9054 1.18752 30.1217 1.1875 30.3459V35.7701C1.1875 35.9942 1.27074 36.2103 1.42108 36.3765C1.57142 36.5427 1.77813 36.6472 2.00112 36.6696L7.86914 37.2563C8.50291 41.0344 9.98703 44.619 12.2094 47.7394L8.47665 52.302C8.33479 52.4755 8.26244 52.6955 8.27363 52.9193C8.28482 53.1432 8.37876 53.3549 8.53722 53.5134L12.373 57.3491C12.5315 57.5076 12.7432 57.6015 12.967 57.6127C13.1909 57.6239 13.4109 57.5516 13.5844 57.4097L18.147 53.6761C21.2674 55.8986 24.852 57.383 28.6301 58.0172L29.2168 63.8843C29.239 64.1075 29.3433 64.3144 29.5096 64.4649C29.6758 64.6155 29.892 64.6988 30.1163 64.6989H35.5404C35.7645 64.6989 35.9807 64.6156 36.1469 64.4653C36.3131 64.3149 36.4175 64.1082 36.4399 63.8852L37.0266 58.0172C40.8047 57.3833 44.3892 55.8992 47.5097 53.677L52.0723 57.4097C52.2457 57.5519 52.4658 57.6245 52.6897 57.6134C52.9137 57.6022 53.1254 57.508 53.2837 57.3491L57.1195 53.5134C57.2779 53.3549 57.3719 53.1432 57.3831 52.9193C57.3943 52.6955 57.3219 52.4755 57.1801 52.302L53.4464 47.7394C55.6691 44.6191 57.1535 41.0344 57.7876 37.2563L63.6547 36.6696C63.8778 36.6474 64.0848 36.543 64.2353 36.3768C64.3858 36.2106 64.4692 35.9943 64.4692 35.7701V30.3459C64.4692 30.1218 64.386 29.9057 64.2356 29.7395C64.0853 29.5733 63.8786 29.4688 63.6556 29.4464ZM62.6612 34.9519L56.9098 35.5269C56.7081 35.5473 56.5192 35.6348 56.3732 35.7755C56.2273 35.9162 56.1329 36.1018 56.1052 36.3025C55.5544 40.269 53.9977 44.0285 51.5832 47.2232C51.4605 47.3849 51.3958 47.5833 51.3996 47.7864C51.4034 47.9894 51.4754 48.1852 51.604 48.3423L55.2626 52.8136L52.584 55.4923L48.1127 51.8337C47.9558 51.705 47.7602 51.6328 47.5573 51.6289C47.3544 51.6249 47.1561 51.6894 46.9944 51.812C43.7998 54.2267 40.0403 55.7834 36.0738 56.3339C35.8727 56.3615 35.6868 56.456 35.5459 56.6021C35.4051 56.7482 35.3175 56.9375 35.2972 57.1394L34.7223 62.8908H30.9344L30.3595 57.1394C30.3391 56.9378 30.2515 56.7488 30.1109 56.6029C29.9702 56.457 29.7846 56.3626 29.5838 56.3348C25.6172 55.7841 21.8577 54.227 18.6632 51.812C18.5013 51.6894 18.3029 51.6248 18.0998 51.6288C17.8968 51.6327 17.701 51.7049 17.544 51.8337L13.0727 55.4923L10.3941 52.8136L14.0527 48.3423C14.1811 48.1853 14.253 47.9896 14.2568 47.7868C14.2605 47.584 14.196 47.3858 14.0735 47.2241C11.6593 44.0293 10.1029 40.2698 9.55244 36.3034C9.52483 36.1024 9.43037 35.9164 9.28426 35.7756C9.13815 35.6347 8.94889 35.5471 8.74695 35.5269L2.99555 34.9519V31.1641L8.74695 30.5891C8.9486 30.5687 9.13755 30.4812 9.28346 30.3405C9.42937 30.1998 9.52378 30.0142 9.55153 29.8135C10.1023 25.847 11.659 22.0875 14.0735 18.8928C14.1962 18.7311 14.2609 18.5327 14.2571 18.3296C14.2533 18.1266 14.1813 17.9308 14.0527 17.7737L10.3941 13.3024L13.0727 10.6237L17.544 14.2823C17.8677 14.5463 18.3296 14.5553 18.6623 14.3031C21.8571 11.8889 25.6166 10.3325 29.5829 9.78208C29.784 9.75448 29.9699 9.66002 30.1108 9.51391C30.2516 9.3678 30.3392 9.17854 30.3595 8.9766L30.9344 3.22519H34.7223L35.2972 8.9766C35.3176 9.17824 35.4052 9.36719 35.5458 9.5131C35.6865 9.65902 35.8721 9.75343 36.0729 9.78118C40.0393 10.3319 43.7988 11.8886 46.9935 14.3031C47.1553 14.4258 47.3537 14.4905 47.5567 14.4868C47.7597 14.483 47.9556 14.411 48.1127 14.2823L52.584 10.6237L55.2626 13.3024L51.604 17.7737C51.4756 17.9307 51.4037 18.1264 51.3999 18.3292C51.3962 18.532 51.4607 18.7302 51.5832 18.8919C53.9974 22.0867 55.5538 25.8462 56.1043 29.8125C56.1319 30.0136 56.2263 30.1995 56.3724 30.3404C56.5186 30.4813 56.7078 30.5689 56.9098 30.5891L62.6612 31.1641V34.9519Z"/>
</mask>
<path d="M63.6556 29.4464L57.7876 28.8597C57.1538 25.0816 55.6697 21.497 53.4473 18.3766L57.1801 13.814C57.3219 13.6405 57.3943 13.4205 57.3831 13.1967C57.3719 12.9728 57.2779 12.7611 57.1195 12.6026L53.2837 8.76686C53.1252 8.6084 52.9135 8.51447 52.6897 8.50327C52.4658 8.49208 52.2458 8.56443 52.0723 8.70629L47.5097 12.4399C44.3894 10.2173 40.8048 8.73283 37.0266 8.09879L36.4399 2.23167C36.4177 2.00852 36.3134 1.80158 36.1472 1.65106C35.9809 1.50053 35.7647 1.41716 35.5404 1.41714H30.1163C29.8922 1.41714 29.676 1.50038 29.5098 1.65072C29.3436 1.80106 29.2392 2.00778 29.2168 2.23077L28.6301 8.09879C24.852 8.73256 21.2674 10.2167 18.147 12.439L13.5844 8.70629C13.411 8.56424 13.1909 8.49176 12.967 8.50296C12.7431 8.51415 12.5314 8.60822 12.373 8.76686L8.53722 12.6026C8.37876 12.7611 8.28482 12.9728 8.27363 13.1967C8.26244 13.4205 8.33479 13.6405 8.47665 13.814L12.2103 18.3766C9.98761 21.4969 8.50319 25.0816 7.86914 28.8597L2.00203 29.4464C1.77887 29.4686 1.57194 29.573 1.42141 29.7392C1.27089 29.9054 1.18752 30.1217 1.1875 30.3459V35.7701C1.1875 35.9942 1.27074 36.2103 1.42108 36.3765C1.57142 36.5427 1.77813 36.6472 2.00112 36.6696L7.86914 37.2563C8.50291 41.0344 9.98703 44.619 12.2094 47.7394L8.47665 52.302C8.33479 52.4755 8.26244 52.6955 8.27363 52.9193C8.28482 53.1432 8.37876 53.3549 8.53722 53.5134L12.373 57.3491C12.5315 57.5076 12.7432 57.6015 12.967 57.6127C13.1909 57.6239 13.4109 57.5516 13.5844 57.4097L18.147 53.6761C21.2674 55.8986 24.852 57.383 28.6301 58.0172L29.2168 63.8843C29.239 64.1075 29.3433 64.3144 29.5096 64.4649C29.6758 64.6155 29.892 64.6988 30.1163 64.6989H35.5404C35.7645 64.6989 35.9807 64.6156 36.1469 64.4653C36.3131 64.3149 36.4175 64.1082 36.4399 63.8852L37.0266 58.0172C40.8047 57.3833 44.3892 55.8992 47.5097 53.677L52.0723 57.4097C52.2457 57.5519 52.4658 57.6245 52.6897 57.6134C52.9137 57.6022 53.1254 57.508 53.2837 57.3491L57.1195 53.5134C57.2779 53.3549 57.3719 53.1432 57.3831 52.9193C57.3943 52.6955 57.3219 52.4755 57.1801 52.302L53.4464 47.7394C55.6691 44.6191 57.1535 41.0344 57.7876 37.2563L63.6547 36.6696C63.8778 36.6474 64.0848 36.543 64.2353 36.3768C64.3858 36.2106 64.4692 35.9943 64.4692 35.7701V30.3459C64.4692 30.1218 64.386 29.9057 64.2356 29.7395C64.0853 29.5733 63.8786 29.4688 63.6556 29.4464ZM62.6612 34.9519L56.9098 35.5269C56.7081 35.5473 56.5192 35.6348 56.3732 35.7755C56.2273 35.9162 56.1329 36.1018 56.1052 36.3025C55.5544 40.269 53.9977 44.0285 51.5832 47.2232C51.4605 47.3849 51.3958 47.5833 51.3996 47.7864C51.4034 47.9894 51.4754 48.1852 51.604 48.3423L55.2626 52.8136L52.584 55.4923L48.1127 51.8337C47.9558 51.705 47.7602 51.6328 47.5573 51.6289C47.3544 51.6249 47.1561 51.6894 46.9944 51.812C43.7998 54.2267 40.0403 55.7834 36.0738 56.3339C35.8727 56.3615 35.6868 56.456 35.5459 56.6021C35.4051 56.7482 35.3175 56.9375 35.2972 57.1394L34.7223 62.8908H30.9344L30.3595 57.1394C30.3391 56.9378 30.2515 56.7488 30.1109 56.6029C29.9702 56.457 29.7846 56.3626 29.5838 56.3348C25.6172 55.7841 21.8577 54.227 18.6632 51.812C18.5013 51.6894 18.3029 51.6248 18.0998 51.6288C17.8968 51.6327 17.701 51.7049 17.544 51.8337L13.0727 55.4923L10.3941 52.8136L14.0527 48.3423C14.1811 48.1853 14.253 47.9896 14.2568 47.7868C14.2605 47.584 14.196 47.3858 14.0735 47.2241C11.6593 44.0293 10.1029 40.2698 9.55244 36.3034C9.52483 36.1024 9.43037 35.9164 9.28426 35.7756C9.13815 35.6347 8.94889 35.5471 8.74695 35.5269L2.99555 34.9519V31.1641L8.74695 30.5891C8.9486 30.5687 9.13755 30.4812 9.28346 30.3405C9.42937 30.1998 9.52378 30.0142 9.55153 29.8135C10.1023 25.847 11.659 22.0875 14.0735 18.8928C14.1962 18.7311 14.2609 18.5327 14.2571 18.3296C14.2533 18.1266 14.1813 17.9308 14.0527 17.7737L10.3941 13.3024L13.0727 10.6237L17.544 14.2823C17.8677 14.5463 18.3296 14.5553 18.6623 14.3031C21.8571 11.8889 25.6166 10.3325 29.5829 9.78208C29.784 9.75448 29.9699 9.66002 30.1108 9.51391C30.2516 9.3678 30.3392 9.17854 30.3595 8.9766L30.9344 3.22519H34.7223L35.2972 8.9766C35.3176 9.17824 35.4052 9.36719 35.5458 9.5131C35.6865 9.65902 35.8721 9.75343 36.0729 9.78118C40.0393 10.3319 43.7988 11.8886 46.9935 14.3031C47.1553 14.4258 47.3537 14.4905 47.5567 14.4868C47.7597 14.483 47.9556 14.411 48.1127 14.2823L52.584 10.6237L55.2626 13.3024L51.604 17.7737C51.4756 17.9307 51.4037 18.1264 51.3999 18.3292C51.3962 18.532 51.4607 18.7302 51.5832 18.8919C53.9974 22.0867 55.5538 25.8462 56.1043 29.8125C56.1319 30.0136 56.2263 30.1995 56.3724 30.3404C56.5186 30.4813 56.7078 30.5689 56.9098 30.5891L62.6612 31.1641V34.9519Z" fill="#2F5325"/>
<path d="M63.6556 29.4464L57.7876 28.8597C57.1538 25.0816 55.6697 21.497 53.4473 18.3766L57.1801 13.814C57.3219 13.6405 57.3943 13.4205 57.3831 13.1967C57.3719 12.9728 57.2779 12.7611 57.1195 12.6026L53.2837 8.76686C53.1252 8.6084 52.9135 8.51447 52.6897 8.50327C52.4658 8.49208 52.2458 8.56443 52.0723 8.70629L47.5097 12.4399C44.3894 10.2173 40.8048 8.73283 37.0266 8.09879L36.4399 2.23167C36.4177 2.00852 36.3134 1.80158 36.1472 1.65106C35.9809 1.50053 35.7647 1.41716 35.5404 1.41714H30.1163C29.8922 1.41714 29.676 1.50038 29.5098 1.65072C29.3436 1.80106 29.2392 2.00778 29.2168 2.23077L28.6301 8.09879C24.852 8.73256 21.2674 10.2167 18.147 12.439L13.5844 8.70629C13.411 8.56424 13.1909 8.49176 12.967 8.50296C12.7431 8.51415 12.5314 8.60822 12.373 8.76686L8.53722 12.6026C8.37876 12.7611 8.28482 12.9728 8.27363 13.1967C8.26244 13.4205 8.33479 13.6405 8.47665 13.814L12.2103 18.3766C9.98761 21.4969 8.50319 25.0816 7.86914 28.8597L2.00203 29.4464C1.77887 29.4686 1.57194 29.573 1.42141 29.7392C1.27089 29.9054 1.18752 30.1217 1.1875 30.3459V35.7701C1.1875 35.9942 1.27074 36.2103 1.42108 36.3765C1.57142 36.5427 1.77813 36.6472 2.00112 36.6696L7.86914 37.2563C8.50291 41.0344 9.98703 44.619 12.2094 47.7394L8.47665 52.302C8.33479 52.4755 8.26244 52.6955 8.27363 52.9193C8.28482 53.1432 8.37876 53.3549 8.53722 53.5134L12.373 57.3491C12.5315 57.5076 12.7432 57.6015 12.967 57.6127C13.1909 57.6239 13.4109 57.5516 13.5844 57.4097L18.147 53.6761C21.2674 55.8986 24.852 57.383 28.6301 58.0172L29.2168 63.8843C29.239 64.1075 29.3433 64.3144 29.5096 64.4649C29.6758 64.6155 29.892 64.6988 30.1163 64.6989H35.5404C35.7645 64.6989 35.9807 64.6156 36.1469 64.4653C36.3131 64.3149 36.4175 64.1082 36.4399 63.8852L37.0266 58.0172C40.8047 57.3833 44.3892 55.8992 47.5097 53.677L52.0723 57.4097C52.2457 57.5519 52.4658 57.6245 52.6897 57.6134C52.9137 57.6022 53.1254 57.508 53.2837 57.3491L57.1195 53.5134C57.2779 53.3549 57.3719 53.1432 57.3831 52.9193C57.3943 52.6955 57.3219 52.4755 57.1801 52.302L53.4464 47.7394C55.6691 44.6191 57.1535 41.0344 57.7876 37.2563L63.6547 36.6696C63.8778 36.6474 64.0848 36.543 64.2353 36.3768C64.3858 36.2106 64.4692 35.9943 64.4692 35.7701V30.3459C64.4692 30.1218 64.386 29.9057 64.2356 29.7395C64.0853 29.5733 63.8786 29.4688 63.6556 29.4464ZM62.6612 34.9519L56.9098 35.5269C56.7081 35.5473 56.5192 35.6348 56.3732 35.7755C56.2273 35.9162 56.1329 36.1018 56.1052 36.3025C55.5544 40.269 53.9977 44.0285 51.5832 47.2232C51.4605 47.3849 51.3958 47.5833 51.3996 47.7864C51.4034 47.9894 51.4754 48.1852 51.604 48.3423L55.2626 52.8136L52.584 55.4923L48.1127 51.8337C47.9558 51.705 47.7602 51.6328 47.5573 51.6289C47.3544 51.6249 47.1561 51.6894 46.9944 51.812C43.7998 54.2267 40.0403 55.7834 36.0738 56.3339C35.8727 56.3615 35.6868 56.456 35.5459 56.6021C35.4051 56.7482 35.3175 56.9375 35.2972 57.1394L34.7223 62.8908H30.9344L30.3595 57.1394C30.3391 56.9378 30.2515 56.7488 30.1109 56.6029C29.9702 56.457 29.7846 56.3626 29.5838 56.3348C25.6172 55.7841 21.8577 54.227 18.6632 51.812C18.5013 51.6894 18.3029 51.6248 18.0998 51.6288C17.8968 51.6327 17.701 51.7049 17.544 51.8337L13.0727 55.4923L10.3941 52.8136L14.0527 48.3423C14.1811 48.1853 14.253 47.9896 14.2568 47.7868C14.2605 47.584 14.196 47.3858 14.0735 47.2241C11.6593 44.0293 10.1029 40.2698 9.55244 36.3034C9.52483 36.1024 9.43037 35.9164 9.28426 35.7756C9.13815 35.6347 8.94889 35.5471 8.74695 35.5269L2.99555 34.9519V31.1641L8.74695 30.5891C8.9486 30.5687 9.13755 30.4812 9.28346 30.3405C9.42937 30.1998 9.52378 30.0142 9.55153 29.8135C10.1023 25.847 11.659 22.0875 14.0735 18.8928C14.1962 18.7311 14.2609 18.5327 14.2571 18.3296C14.2533 18.1266 14.1813 17.9308 14.0527 17.7737L10.3941 13.3024L13.0727 10.6237L17.544 14.2823C17.8677 14.5463 18.3296 14.5553 18.6623 14.3031C21.8571 11.8889 25.6166 10.3325 29.5829 9.78208C29.784 9.75448 29.9699 9.66002 30.1108 9.51391C30.2516 9.3678 30.3392 9.17854 30.3595 8.9766L30.9344 3.22519H34.7223L35.2972 8.9766C35.3176 9.17824 35.4052 9.36719 35.5458 9.5131C35.6865 9.65902 35.8721 9.75343 36.0729 9.78118C40.0393 10.3319 43.7988 11.8886 46.9935 14.3031C47.1553 14.4258 47.3537 14.4905 47.5567 14.4868C47.7597 14.483 47.9556 14.411 48.1127 14.2823L52.584 10.6237L55.2626 13.3024L51.604 17.7737C51.4756 17.9307 51.4037 18.1264 51.3999 18.3292C51.3962 18.532 51.4607 18.7302 51.5832 18.8919C53.9974 22.0867 55.5538 25.8462 56.1043 29.8125C56.1319 30.0136 56.2263 30.1995 56.3724 30.3404C56.5186 30.4813 56.7078 30.5689 56.9098 30.5891L62.6612 31.1641V34.9519Z" stroke="#2F5325" mask="url(#path-2-outside-1_1192_25)"/>
</svg>
