<svg width="60" height="79" viewBox="0 0 60 79" fill="none" xmlns="http://www.w3.org/2000/svg">
<path d="M0.411133 0.787323V78.7857H59.2778V16.7916L58.542 16.0799L42.8197 0.787323H0.411133ZM5.31669 5.66222H39.6556V20.2479H54.3723V73.9108H5.31669V5.66222ZM44.5612 9.30865L50.7961 15.373H44.5612V9.30865ZM10.2223 30.0367V34.9116H15.1278V30.0367H10.2223ZM20.0334 30.0367V34.9116H49.4667V30.0367H20.0334ZM10.2223 44.6614V49.5363H15.1278V44.6614H10.2223ZM20.0334 44.6614V49.5363H49.4667V44.6614H20.0334ZM10.2223 59.2861V64.161H15.1278V59.2861H10.2223ZM20.0334 59.2861V64.161H49.4667V59.2861H20.0334Z" fill="#2F5325"/>
</svg>
