<svg width="68" height="39" viewBox="0 0 68 39" fill="none" xmlns="http://www.w3.org/2000/svg">
<path d="M40.3027 38.2199H5.37369C3.9485 38.2199 2.58168 37.6538 1.57392 36.646C0.566155 35.6382 0 34.2714 0 32.8462V5.97778C0 4.55259 0.566155 3.18578 1.57392 2.17801C2.58168 1.17025 3.9485 0.604095 5.37369 0.604095H40.3027C41.7279 0.604095 43.0947 1.17025 44.1024 2.17801C45.1102 3.18578 45.6764 4.55259 45.6764 5.97778V32.8462C45.6764 34.2714 45.1102 35.6382 44.1024 36.646C43.0947 37.6538 41.7279 38.2199 40.3027 38.2199Z" fill="#2F5325"/>
<path d="M51.0508 11.3514V27.4725L62.9938 35.4363C63.3986 35.7064 63.8692 35.8614 64.3553 35.8849C64.8414 35.9084 65.3248 35.7994 65.7537 35.5696C66.1827 35.3398 66.5413 34.9978 66.791 34.5801C67.0408 34.1625 67.1724 33.6848 67.1718 33.1981V5.62573C67.1719 5.13929 67.0399 4.66196 66.79 4.24466C66.54 3.82736 66.1815 3.48575 65.7526 3.25627C65.3237 3.02678 64.8405 2.91804 64.3546 2.94164C63.8688 2.96524 63.3984 3.1203 62.9938 3.39027L51.0508 11.3514Z" fill="#2F5325"/>
</svg>
