<svg width="62" height="71" viewBox="0 0 62 71" fill="none" xmlns="http://www.w3.org/2000/svg">
<mask id="path-1-outside-1_1192_24" maskUnits="userSpaceOnUse" x="-0.480469" y="0.202332" width="62" height="71" fill="black">
<rect fill="white" x="-0.480469" y="0.202332" width="62" height="71"/>
<path d="M27.4563 55.2401H20.9915C20.7057 55.2401 20.4317 55.354 20.2296 55.5567C20.0275 55.7594 19.914 56.0343 19.914 56.3209V62.8054C19.914 63.0921 20.0275 63.367 20.2296 63.5696C20.4317 63.7723 20.7057 63.8862 20.9915 63.8862H27.4563C27.7421 63.8862 28.0161 63.7723 28.2182 63.5696C28.4203 63.367 28.5338 63.0921 28.5338 62.8054V56.3209C28.5338 56.0343 28.4203 55.7594 28.2182 55.5567C28.0161 55.354 27.7421 55.2401 27.4563 55.2401ZM26.3788 61.7247H22.0689V57.4016H26.3788V61.7247ZM47.9283 63.1361C48.0127 63.3052 48.14 63.4491 48.2973 63.5534C48.4546 63.6578 48.6365 63.7188 48.8247 63.7305H48.8915C49.069 63.7305 49.2436 63.6864 49.4 63.6023C49.5564 63.5182 49.6897 63.3967 49.788 63.2485L54.0979 56.764C54.1764 56.6459 54.231 56.5135 54.2585 56.3742C54.286 56.235 54.2858 56.0917 54.2581 55.9525C54.2304 55.8133 54.1756 55.6809 54.0969 55.563C54.0182 55.445 53.9171 55.3438 53.7994 55.265C53.6817 55.1862 53.5496 55.1315 53.4108 55.1039C53.272 55.0763 53.1291 55.0764 52.9904 55.1042C52.8516 55.132 52.7196 55.187 52.602 55.2659C52.4844 55.3449 52.3835 55.4463 52.3049 55.5644L49.0251 60.4991L47.7128 57.8469C47.585 57.5904 47.3609 57.3952 47.0897 57.3044C46.8186 57.2136 46.5225 57.2346 46.2668 57.3627C46.011 57.4909 45.8165 57.7156 45.726 57.9876C45.6354 58.2596 45.6563 58.5566 45.7841 58.8131L47.9283 63.1361ZM46.8508 50.9171H53.3156C53.6014 50.9171 53.8754 50.8032 54.0775 50.6006C54.2796 50.3979 54.3931 50.123 54.3931 49.8363V43.3518C54.3931 43.0652 54.2796 42.7903 54.0775 42.5876C53.8754 42.3849 53.6014 42.2711 53.3156 42.2711H46.8508C46.565 42.2711 46.291 42.3849 46.0889 42.5876C45.8868 42.7903 45.7733 43.0652 45.7733 43.3518V49.8363C45.7733 50.123 45.8868 50.3979 46.0889 50.6006C46.291 50.8032 46.565 50.9171 46.8508 50.9171ZM47.9283 44.4326H52.2381V48.7556H47.9283V44.4326ZM46.8508 37.948H53.3156C53.6014 37.948 53.8754 37.8342 54.0775 37.6315C54.2796 37.4288 54.3931 37.1539 54.3931 36.8673V30.3827C54.3931 30.0961 54.2796 29.8212 54.0775 29.6185C53.8754 29.4159 53.6014 29.302 53.3156 29.302H46.8508C46.565 29.302 46.291 29.4159 46.0889 29.6185C45.8868 29.8212 45.7733 30.0961 45.7733 30.3827V36.8673C45.7733 37.1539 45.8868 37.4288 46.0889 37.6315C46.291 37.8342 46.565 37.948 46.8508 37.948ZM47.9283 31.4635H52.2381V35.7865H47.9283V31.4635ZM8.06183 50.9171H14.5267C14.8124 50.9171 15.0865 50.8032 15.2885 50.6006C15.4906 50.3979 15.6041 50.123 15.6041 49.8363V43.3518C15.6041 43.0652 15.4906 42.7903 15.2885 42.5876C15.0865 42.3849 14.8124 42.2711 14.5267 42.2711H8.06183C7.77606 42.2711 7.50201 42.3849 7.29994 42.5876C7.09788 42.7903 6.98436 43.0652 6.98436 43.3518V49.8363C6.98436 50.123 7.09788 50.3979 7.29994 50.6006C7.50201 50.8032 7.77606 50.9171 8.06183 50.9171ZM9.1393 44.4326H13.4492V48.7556H9.1393V44.4326ZM8.06183 63.8862H14.5267C14.8124 63.8862 15.0865 63.7723 15.2885 63.5696C15.4906 63.367 15.6041 63.0921 15.6041 62.8054V56.3209C15.6041 56.0343 15.4906 55.7594 15.2885 55.5567C15.0865 55.354 14.8124 55.2401 14.5267 55.2401H8.06183C7.77606 55.2401 7.50201 55.354 7.29994 55.5567C7.09788 55.7594 6.98436 56.0343 6.98436 56.3209V62.8054C6.98436 63.0921 7.09788 63.367 7.29994 63.5696C7.50201 63.7723 7.77606 63.8862 8.06183 63.8862ZM9.1393 57.4016H13.4492V61.7247H9.1393V57.4016ZM8.06183 37.948H14.5267C14.8124 37.948 15.0865 37.8342 15.2885 37.6315C15.4906 37.4288 15.6041 37.1539 15.6041 36.8673V30.3827C15.6041 30.0961 15.4906 29.8212 15.2885 29.6185C15.0865 29.4159 14.8124 29.302 14.5267 29.302H8.06183C7.77606 29.302 7.50201 29.4159 7.29994 29.6185C7.09788 29.8212 6.98436 30.0961 6.98436 30.3827V36.8673C6.98436 37.1539 7.09788 37.4288 7.29994 37.6315C7.50201 37.8342 7.77606 37.948 8.06183 37.948ZM9.1393 31.4635H13.4492V35.7865H9.1393V31.4635ZM55.4705 9.84838H54.3931V5.52536C54.3931 4.37882 53.939 3.27924 53.1307 2.46852C52.3225 1.65779 51.2262 1.20233 50.0832 1.20233C48.9401 1.20233 47.8439 1.65779 47.0356 2.46852C46.2274 3.27924 45.7733 4.37882 45.7733 5.52536V9.84838H15.6041V5.52536C15.6041 4.37882 15.15 3.27924 14.3418 2.46852C13.5335 1.65779 12.4373 1.20233 11.2942 1.20233C10.1512 1.20233 9.05495 1.65779 8.24669 2.46852C7.43843 3.27924 6.98436 4.37882 6.98436 5.52536V9.84838H5.90689C4.47807 9.84838 3.10778 10.4177 2.09745 11.4311C1.08713 12.4445 0.519531 13.819 0.519531 15.2522V64.9669C0.519531 66.4001 1.08713 67.7746 2.09745 68.788C3.10778 69.8014 4.47807 70.3707 5.90689 70.3707H55.4705C56.8994 70.3707 58.2697 69.8014 59.28 68.788C60.2903 67.7746 60.8579 66.4001 60.8579 64.9669V15.2522C60.8579 13.819 60.2903 12.4445 59.28 11.4311C58.2697 10.4177 56.8994 9.84838 55.4705 9.84838ZM47.9283 5.52536C47.9283 4.95209 48.1553 4.4023 48.5594 3.99694C48.9635 3.59157 49.5117 3.36384 50.0832 3.36384C50.6547 3.36384 51.2028 3.59157 51.607 3.99694C52.0111 4.4023 52.2381 4.95209 52.2381 5.52536V14.1714C52.2381 14.7447 52.0111 15.2945 51.607 15.6998C51.2028 16.1052 50.6547 16.3329 50.0832 16.3329C49.5117 16.3329 48.9635 16.1052 48.5594 15.6998C48.1553 15.2945 47.9283 14.7447 47.9283 14.1714V5.52536ZM9.1393 5.52536C9.1393 4.95209 9.36634 4.4023 9.77047 3.99694C10.1746 3.59157 10.7227 3.36384 11.2942 3.36384C11.8658 3.36384 12.4139 3.59157 12.818 3.99694C13.2221 4.4023 13.4492 4.95209 13.4492 5.52536V14.1714C13.4492 14.7447 13.2221 15.2945 12.818 15.6998C12.4139 16.1052 11.8658 16.3329 11.2942 16.3329C10.7227 16.3329 10.1746 16.1052 9.77047 15.6998C9.36634 15.2945 9.1393 14.7447 9.1393 14.1714V5.52536ZM58.703 64.9669C58.703 65.8268 58.3624 66.6515 57.7562 67.2596C57.15 67.8676 56.3278 68.2092 55.4705 68.2092H5.90689C5.0496 68.2092 4.22742 67.8676 3.62122 67.2596C3.01503 66.6515 2.67447 65.8268 2.67447 64.9669V24.979H58.703V64.9669ZM58.703 22.8175H2.67447V15.2522C2.67447 14.3923 3.01503 13.5676 3.62122 12.9595C4.22742 12.3515 5.0496 12.0099 5.90689 12.0099H6.98436V14.1714C6.98436 15.3179 7.43843 16.4175 8.24669 17.2282C9.05495 18.039 10.1512 18.4944 11.2942 18.4944C12.4373 18.4944 13.5335 18.039 14.3418 17.2282C15.15 16.4175 15.6041 15.3179 15.6041 14.1714V12.0099H45.7733V14.1714C45.7733 15.3179 46.2274 16.4175 47.0356 17.2282C47.8439 18.039 48.9401 18.4944 50.0832 18.4944C51.2262 18.4944 52.3225 18.039 53.1307 17.2282C53.939 16.4175 54.3931 15.3179 54.3931 14.1714V12.0099H55.4705C56.3278 12.0099 57.15 12.3515 57.7562 12.9595C58.3624 13.5676 58.703 14.3923 58.703 15.2522V22.8175ZM22.0689 37.198C22.1534 37.3671 22.2807 37.511 22.438 37.6153C22.5953 37.7196 22.7772 37.7807 22.9654 37.7924H23.0322C23.2096 37.7923 23.3843 37.7483 23.5407 37.6642C23.6971 37.5801 23.8304 37.4586 23.9287 37.3104L28.2385 30.8259C28.3171 30.7078 28.3717 30.5753 28.3992 30.4361C28.4267 30.2969 28.4265 30.1535 28.3988 30.0143C28.3711 29.8752 28.3163 29.7428 28.2376 29.6248C28.1589 29.5069 28.0578 29.4056 27.9401 29.3268C27.8224 29.2481 27.6903 29.1933 27.5515 29.1657C27.4127 29.1382 27.2698 29.1383 27.131 29.1661C26.9923 29.1939 26.8603 29.2488 26.7427 29.3278C26.6251 29.4067 26.5242 29.5081 26.4456 29.6262L23.1658 34.5609L21.8535 31.9088C21.7902 31.7817 21.7026 31.6685 21.5957 31.5754C21.4888 31.4823 21.3647 31.4113 21.2304 31.3663C21.0962 31.3213 20.9544 31.3033 20.8132 31.3133C20.672 31.3233 20.5341 31.3612 20.4075 31.4246C20.2809 31.488 20.1679 31.5759 20.0751 31.6831C19.9823 31.7903 19.9115 31.9148 19.8667 32.0495C19.8218 32.1842 19.8039 32.3264 19.8139 32.468C19.8238 32.6097 19.8615 32.7479 19.9248 32.875L22.0689 37.198ZM33.9211 37.948H40.386C40.6717 37.948 40.9458 37.8342 41.1478 37.6315C41.3499 37.4288 41.4634 37.1539 41.4634 36.8673V30.3827C41.4634 30.0961 41.3499 29.8212 41.1478 29.6185C40.9458 29.4159 40.6717 29.302 40.386 29.302H33.9211C33.6354 29.302 33.3613 29.4159 33.1592 29.6185C32.9572 29.8212 32.8437 30.0961 32.8437 30.3827V36.8673C32.8437 37.1539 32.9572 37.4288 33.1592 37.6315C33.3613 37.8342 33.6354 37.948 33.9211 37.948ZM34.9986 31.4635H39.3085V35.7865H34.9986V31.4635ZM33.9211 63.8862H40.386C40.6717 63.8862 40.9458 63.7723 41.1478 63.5696C41.3499 63.367 41.4634 63.0921 41.4634 62.8054V56.3209C41.4634 56.0343 41.3499 55.7594 41.1478 55.5567C40.9458 55.354 40.6717 55.2401 40.386 55.2401H33.9211C33.6354 55.2401 33.3613 55.354 33.1592 55.5567C32.9572 55.7594 32.8437 56.0343 32.8437 56.3209V62.8054C32.8437 63.0921 32.9572 63.367 33.1592 63.5696C33.3613 63.7723 33.6354 63.8862 33.9211 63.8862ZM34.9986 57.4016H39.3085V61.7247H34.9986V57.4016ZM33.9211 50.9171H40.386C40.6717 50.9171 40.9458 50.8032 41.1478 50.6006C41.3499 50.3979 41.4634 50.123 41.4634 49.8363V43.3518C41.4634 43.0652 41.3499 42.7903 41.1478 42.5876C40.9458 42.3849 40.6717 42.2711 40.386 42.2711H33.9211C33.6354 42.2711 33.3613 42.3849 33.1592 42.5876C32.9572 42.7903 32.8437 43.0652 32.8437 43.3518V49.8363C32.8437 50.123 32.9572 50.3979 33.1592 50.6006C33.3613 50.8032 33.6354 50.9171 33.9211 50.9171ZM34.9986 44.4326H39.3085V48.7556H34.9986V44.4326ZM27.4563 42.2711H20.9915C20.7057 42.2711 20.4317 42.3849 20.2296 42.5876C20.0275 42.7903 19.914 43.0652 19.914 43.3518V49.8363C19.914 50.123 20.0275 50.3979 20.2296 50.6006C20.4317 50.8032 20.7057 50.9171 20.9915 50.9171H27.4563C27.7421 50.9171 28.0161 50.8032 28.2182 50.6006C28.4203 50.3979 28.5338 50.123 28.5338 49.8363V43.3518C28.5338 43.0652 28.4203 42.7903 28.2182 42.5876C28.0161 42.3849 27.7421 42.2711 27.4563 42.2711ZM26.3788 48.7556H22.0689V44.4326H26.3788V48.7556Z"/>
</mask>
<path d="M27.4563 55.2401H20.9915C20.7057 55.2401 20.4317 55.354 20.2296 55.5567C20.0275 55.7594 19.914 56.0343 19.914 56.3209V62.8054C19.914 63.0921 20.0275 63.367 20.2296 63.5696C20.4317 63.7723 20.7057 63.8862 20.9915 63.8862H27.4563C27.7421 63.8862 28.0161 63.7723 28.2182 63.5696C28.4203 63.367 28.5338 63.0921 28.5338 62.8054V56.3209C28.5338 56.0343 28.4203 55.7594 28.2182 55.5567C28.0161 55.354 27.7421 55.2401 27.4563 55.2401ZM26.3788 61.7247H22.0689V57.4016H26.3788V61.7247ZM47.9283 63.1361C48.0127 63.3052 48.14 63.4491 48.2973 63.5534C48.4546 63.6578 48.6365 63.7188 48.8247 63.7305H48.8915C49.069 63.7305 49.2436 63.6864 49.4 63.6023C49.5564 63.5182 49.6897 63.3967 49.788 63.2485L54.0979 56.764C54.1764 56.6459 54.231 56.5135 54.2585 56.3742C54.286 56.235 54.2858 56.0917 54.2581 55.9525C54.2304 55.8133 54.1756 55.6809 54.0969 55.563C54.0182 55.445 53.9171 55.3438 53.7994 55.265C53.6817 55.1862 53.5496 55.1315 53.4108 55.1039C53.272 55.0763 53.1291 55.0764 52.9904 55.1042C52.8516 55.132 52.7196 55.187 52.602 55.2659C52.4844 55.3449 52.3835 55.4463 52.3049 55.5644L49.0251 60.4991L47.7128 57.8469C47.585 57.5904 47.3609 57.3952 47.0897 57.3044C46.8186 57.2136 46.5225 57.2346 46.2668 57.3627C46.011 57.4909 45.8165 57.7156 45.726 57.9876C45.6354 58.2596 45.6563 58.5566 45.7841 58.8131L47.9283 63.1361ZM46.8508 50.9171H53.3156C53.6014 50.9171 53.8754 50.8032 54.0775 50.6006C54.2796 50.3979 54.3931 50.123 54.3931 49.8363V43.3518C54.3931 43.0652 54.2796 42.7903 54.0775 42.5876C53.8754 42.3849 53.6014 42.2711 53.3156 42.2711H46.8508C46.565 42.2711 46.291 42.3849 46.0889 42.5876C45.8868 42.7903 45.7733 43.0652 45.7733 43.3518V49.8363C45.7733 50.123 45.8868 50.3979 46.0889 50.6006C46.291 50.8032 46.565 50.9171 46.8508 50.9171ZM47.9283 44.4326H52.2381V48.7556H47.9283V44.4326ZM46.8508 37.948H53.3156C53.6014 37.948 53.8754 37.8342 54.0775 37.6315C54.2796 37.4288 54.3931 37.1539 54.3931 36.8673V30.3827C54.3931 30.0961 54.2796 29.8212 54.0775 29.6185C53.8754 29.4159 53.6014 29.302 53.3156 29.302H46.8508C46.565 29.302 46.291 29.4159 46.0889 29.6185C45.8868 29.8212 45.7733 30.0961 45.7733 30.3827V36.8673C45.7733 37.1539 45.8868 37.4288 46.0889 37.6315C46.291 37.8342 46.565 37.948 46.8508 37.948ZM47.9283 31.4635H52.2381V35.7865H47.9283V31.4635ZM8.06183 50.9171H14.5267C14.8124 50.9171 15.0865 50.8032 15.2885 50.6006C15.4906 50.3979 15.6041 50.123 15.6041 49.8363V43.3518C15.6041 43.0652 15.4906 42.7903 15.2885 42.5876C15.0865 42.3849 14.8124 42.2711 14.5267 42.2711H8.06183C7.77606 42.2711 7.50201 42.3849 7.29994 42.5876C7.09788 42.7903 6.98436 43.0652 6.98436 43.3518V49.8363C6.98436 50.123 7.09788 50.3979 7.29994 50.6006C7.50201 50.8032 7.77606 50.9171 8.06183 50.9171ZM9.1393 44.4326H13.4492V48.7556H9.1393V44.4326ZM8.06183 63.8862H14.5267C14.8124 63.8862 15.0865 63.7723 15.2885 63.5696C15.4906 63.367 15.6041 63.0921 15.6041 62.8054V56.3209C15.6041 56.0343 15.4906 55.7594 15.2885 55.5567C15.0865 55.354 14.8124 55.2401 14.5267 55.2401H8.06183C7.77606 55.2401 7.50201 55.354 7.29994 55.5567C7.09788 55.7594 6.98436 56.0343 6.98436 56.3209V62.8054C6.98436 63.0921 7.09788 63.367 7.29994 63.5696C7.50201 63.7723 7.77606 63.8862 8.06183 63.8862ZM9.1393 57.4016H13.4492V61.7247H9.1393V57.4016ZM8.06183 37.948H14.5267C14.8124 37.948 15.0865 37.8342 15.2885 37.6315C15.4906 37.4288 15.6041 37.1539 15.6041 36.8673V30.3827C15.6041 30.0961 15.4906 29.8212 15.2885 29.6185C15.0865 29.4159 14.8124 29.302 14.5267 29.302H8.06183C7.77606 29.302 7.50201 29.4159 7.29994 29.6185C7.09788 29.8212 6.98436 30.0961 6.98436 30.3827V36.8673C6.98436 37.1539 7.09788 37.4288 7.29994 37.6315C7.50201 37.8342 7.77606 37.948 8.06183 37.948ZM9.1393 31.4635H13.4492V35.7865H9.1393V31.4635ZM55.4705 9.84838H54.3931V5.52536C54.3931 4.37882 53.939 3.27924 53.1307 2.46852C52.3225 1.65779 51.2262 1.20233 50.0832 1.20233C48.9401 1.20233 47.8439 1.65779 47.0356 2.46852C46.2274 3.27924 45.7733 4.37882 45.7733 5.52536V9.84838H15.6041V5.52536C15.6041 4.37882 15.15 3.27924 14.3418 2.46852C13.5335 1.65779 12.4373 1.20233 11.2942 1.20233C10.1512 1.20233 9.05495 1.65779 8.24669 2.46852C7.43843 3.27924 6.98436 4.37882 6.98436 5.52536V9.84838H5.90689C4.47807 9.84838 3.10778 10.4177 2.09745 11.4311C1.08713 12.4445 0.519531 13.819 0.519531 15.2522V64.9669C0.519531 66.4001 1.08713 67.7746 2.09745 68.788C3.10778 69.8014 4.47807 70.3707 5.90689 70.3707H55.4705C56.8994 70.3707 58.2697 69.8014 59.28 68.788C60.2903 67.7746 60.8579 66.4001 60.8579 64.9669V15.2522C60.8579 13.819 60.2903 12.4445 59.28 11.4311C58.2697 10.4177 56.8994 9.84838 55.4705 9.84838ZM47.9283 5.52536C47.9283 4.95209 48.1553 4.4023 48.5594 3.99694C48.9635 3.59157 49.5117 3.36384 50.0832 3.36384C50.6547 3.36384 51.2028 3.59157 51.607 3.99694C52.0111 4.4023 52.2381 4.95209 52.2381 5.52536V14.1714C52.2381 14.7447 52.0111 15.2945 51.607 15.6998C51.2028 16.1052 50.6547 16.3329 50.0832 16.3329C49.5117 16.3329 48.9635 16.1052 48.5594 15.6998C48.1553 15.2945 47.9283 14.7447 47.9283 14.1714V5.52536ZM9.1393 5.52536C9.1393 4.95209 9.36634 4.4023 9.77047 3.99694C10.1746 3.59157 10.7227 3.36384 11.2942 3.36384C11.8658 3.36384 12.4139 3.59157 12.818 3.99694C13.2221 4.4023 13.4492 4.95209 13.4492 5.52536V14.1714C13.4492 14.7447 13.2221 15.2945 12.818 15.6998C12.4139 16.1052 11.8658 16.3329 11.2942 16.3329C10.7227 16.3329 10.1746 16.1052 9.77047 15.6998C9.36634 15.2945 9.1393 14.7447 9.1393 14.1714V5.52536ZM58.703 64.9669C58.703 65.8268 58.3624 66.6515 57.7562 67.2596C57.15 67.8676 56.3278 68.2092 55.4705 68.2092H5.90689C5.0496 68.2092 4.22742 67.8676 3.62122 67.2596C3.01503 66.6515 2.67447 65.8268 2.67447 64.9669V24.979H58.703V64.9669ZM58.703 22.8175H2.67447V15.2522C2.67447 14.3923 3.01503 13.5676 3.62122 12.9595C4.22742 12.3515 5.0496 12.0099 5.90689 12.0099H6.98436V14.1714C6.98436 15.3179 7.43843 16.4175 8.24669 17.2282C9.05495 18.039 10.1512 18.4944 11.2942 18.4944C12.4373 18.4944 13.5335 18.039 14.3418 17.2282C15.15 16.4175 15.6041 15.3179 15.6041 14.1714V12.0099H45.7733V14.1714C45.7733 15.3179 46.2274 16.4175 47.0356 17.2282C47.8439 18.039 48.9401 18.4944 50.0832 18.4944C51.2262 18.4944 52.3225 18.039 53.1307 17.2282C53.939 16.4175 54.3931 15.3179 54.3931 14.1714V12.0099H55.4705C56.3278 12.0099 57.15 12.3515 57.7562 12.9595C58.3624 13.5676 58.703 14.3923 58.703 15.2522V22.8175ZM22.0689 37.198C22.1534 37.3671 22.2807 37.511 22.438 37.6153C22.5953 37.7196 22.7772 37.7807 22.9654 37.7924H23.0322C23.2096 37.7923 23.3843 37.7483 23.5407 37.6642C23.6971 37.5801 23.8304 37.4586 23.9287 37.3104L28.2385 30.8259C28.3171 30.7078 28.3717 30.5753 28.3992 30.4361C28.4267 30.2969 28.4265 30.1535 28.3988 30.0143C28.3711 29.8752 28.3163 29.7428 28.2376 29.6248C28.1589 29.5069 28.0578 29.4056 27.9401 29.3268C27.8224 29.2481 27.6903 29.1933 27.5515 29.1657C27.4127 29.1382 27.2698 29.1383 27.131 29.1661C26.9923 29.1939 26.8603 29.2488 26.7427 29.3278C26.6251 29.4067 26.5242 29.5081 26.4456 29.6262L23.1658 34.5609L21.8535 31.9088C21.7902 31.7817 21.7026 31.6685 21.5957 31.5754C21.4888 31.4823 21.3647 31.4113 21.2304 31.3663C21.0962 31.3213 20.9544 31.3033 20.8132 31.3133C20.672 31.3233 20.5341 31.3612 20.4075 31.4246C20.2809 31.488 20.1679 31.5759 20.0751 31.6831C19.9823 31.7903 19.9115 31.9148 19.8667 32.0495C19.8218 32.1842 19.8039 32.3264 19.8139 32.468C19.8238 32.6097 19.8615 32.7479 19.9248 32.875L22.0689 37.198ZM33.9211 37.948H40.386C40.6717 37.948 40.9458 37.8342 41.1478 37.6315C41.3499 37.4288 41.4634 37.1539 41.4634 36.8673V30.3827C41.4634 30.0961 41.3499 29.8212 41.1478 29.6185C40.9458 29.4159 40.6717 29.302 40.386 29.302H33.9211C33.6354 29.302 33.3613 29.4159 33.1592 29.6185C32.9572 29.8212 32.8437 30.0961 32.8437 30.3827V36.8673C32.8437 37.1539 32.9572 37.4288 33.1592 37.6315C33.3613 37.8342 33.6354 37.948 33.9211 37.948ZM34.9986 31.4635H39.3085V35.7865H34.9986V31.4635ZM33.9211 63.8862H40.386C40.6717 63.8862 40.9458 63.7723 41.1478 63.5696C41.3499 63.367 41.4634 63.0921 41.4634 62.8054V56.3209C41.4634 56.0343 41.3499 55.7594 41.1478 55.5567C40.9458 55.354 40.6717 55.2401 40.386 55.2401H33.9211C33.6354 55.2401 33.3613 55.354 33.1592 55.5567C32.9572 55.7594 32.8437 56.0343 32.8437 56.3209V62.8054C32.8437 63.0921 32.9572 63.367 33.1592 63.5696C33.3613 63.7723 33.6354 63.8862 33.9211 63.8862ZM34.9986 57.4016H39.3085V61.7247H34.9986V57.4016ZM33.9211 50.9171H40.386C40.6717 50.9171 40.9458 50.8032 41.1478 50.6006C41.3499 50.3979 41.4634 50.123 41.4634 49.8363V43.3518C41.4634 43.0652 41.3499 42.7903 41.1478 42.5876C40.9458 42.3849 40.6717 42.2711 40.386 42.2711H33.9211C33.6354 42.2711 33.3613 42.3849 33.1592 42.5876C32.9572 42.7903 32.8437 43.0652 32.8437 43.3518V49.8363C32.8437 50.123 32.9572 50.3979 33.1592 50.6006C33.3613 50.8032 33.6354 50.9171 33.9211 50.9171ZM34.9986 44.4326H39.3085V48.7556H34.9986V44.4326ZM27.4563 42.2711H20.9915C20.7057 42.2711 20.4317 42.3849 20.2296 42.5876C20.0275 42.7903 19.914 43.0652 19.914 43.3518V49.8363C19.914 50.123 20.0275 50.3979 20.2296 50.6006C20.4317 50.8032 20.7057 50.9171 20.9915 50.9171H27.4563C27.7421 50.9171 28.0161 50.8032 28.2182 50.6006C28.4203 50.3979 28.5338 50.123 28.5338 49.8363V43.3518C28.5338 43.0652 28.4203 42.7903 28.2182 42.5876C28.0161 42.3849 27.7421 42.2711 27.4563 42.2711ZM26.3788 48.7556H22.0689V44.4326H26.3788V48.7556Z" fill="#2F5325"/>
<path d="M27.4563 55.2401H20.9915C20.7057 55.2401 20.4317 55.354 20.2296 55.5567C20.0275 55.7594 19.914 56.0343 19.914 56.3209V62.8054C19.914 63.0921 20.0275 63.367 20.2296 63.5696C20.4317 63.7723 20.7057 63.8862 20.9915 63.8862H27.4563C27.7421 63.8862 28.0161 63.7723 28.2182 63.5696C28.4203 63.367 28.5338 63.0921 28.5338 62.8054V56.3209C28.5338 56.0343 28.4203 55.7594 28.2182 55.5567C28.0161 55.354 27.7421 55.2401 27.4563 55.2401ZM26.3788 61.7247H22.0689V57.4016H26.3788V61.7247ZM47.9283 63.1361C48.0127 63.3052 48.14 63.4491 48.2973 63.5534C48.4546 63.6578 48.6365 63.7188 48.8247 63.7305H48.8915C49.069 63.7305 49.2436 63.6864 49.4 63.6023C49.5564 63.5182 49.6897 63.3967 49.788 63.2485L54.0979 56.764C54.1764 56.6459 54.231 56.5135 54.2585 56.3742C54.286 56.235 54.2858 56.0917 54.2581 55.9525C54.2304 55.8133 54.1756 55.6809 54.0969 55.563C54.0182 55.445 53.9171 55.3438 53.7994 55.265C53.6817 55.1862 53.5496 55.1315 53.4108 55.1039C53.272 55.0763 53.1291 55.0764 52.9904 55.1042C52.8516 55.132 52.7196 55.187 52.602 55.2659C52.4844 55.3449 52.3835 55.4463 52.3049 55.5644L49.0251 60.4991L47.7128 57.8469C47.585 57.5904 47.3609 57.3952 47.0897 57.3044C46.8186 57.2136 46.5225 57.2346 46.2668 57.3627C46.011 57.4909 45.8165 57.7156 45.726 57.9876C45.6354 58.2596 45.6563 58.5566 45.7841 58.8131L47.9283 63.1361ZM46.8508 50.9171H53.3156C53.6014 50.9171 53.8754 50.8032 54.0775 50.6006C54.2796 50.3979 54.3931 50.123 54.3931 49.8363V43.3518C54.3931 43.0652 54.2796 42.7903 54.0775 42.5876C53.8754 42.3849 53.6014 42.2711 53.3156 42.2711H46.8508C46.565 42.2711 46.291 42.3849 46.0889 42.5876C45.8868 42.7903 45.7733 43.0652 45.7733 43.3518V49.8363C45.7733 50.123 45.8868 50.3979 46.0889 50.6006C46.291 50.8032 46.565 50.9171 46.8508 50.9171ZM47.9283 44.4326H52.2381V48.7556H47.9283V44.4326ZM46.8508 37.948H53.3156C53.6014 37.948 53.8754 37.8342 54.0775 37.6315C54.2796 37.4288 54.3931 37.1539 54.3931 36.8673V30.3827C54.3931 30.0961 54.2796 29.8212 54.0775 29.6185C53.8754 29.4159 53.6014 29.302 53.3156 29.302H46.8508C46.565 29.302 46.291 29.4159 46.0889 29.6185C45.8868 29.8212 45.7733 30.0961 45.7733 30.3827V36.8673C45.7733 37.1539 45.8868 37.4288 46.0889 37.6315C46.291 37.8342 46.565 37.948 46.8508 37.948ZM47.9283 31.4635H52.2381V35.7865H47.9283V31.4635ZM8.06183 50.9171H14.5267C14.8124 50.9171 15.0865 50.8032 15.2885 50.6006C15.4906 50.3979 15.6041 50.123 15.6041 49.8363V43.3518C15.6041 43.0652 15.4906 42.7903 15.2885 42.5876C15.0865 42.3849 14.8124 42.2711 14.5267 42.2711H8.06183C7.77606 42.2711 7.50201 42.3849 7.29994 42.5876C7.09788 42.7903 6.98436 43.0652 6.98436 43.3518V49.8363C6.98436 50.123 7.09788 50.3979 7.29994 50.6006C7.50201 50.8032 7.77606 50.9171 8.06183 50.9171ZM9.1393 44.4326H13.4492V48.7556H9.1393V44.4326ZM8.06183 63.8862H14.5267C14.8124 63.8862 15.0865 63.7723 15.2885 63.5696C15.4906 63.367 15.6041 63.0921 15.6041 62.8054V56.3209C15.6041 56.0343 15.4906 55.7594 15.2885 55.5567C15.0865 55.354 14.8124 55.2401 14.5267 55.2401H8.06183C7.77606 55.2401 7.50201 55.354 7.29994 55.5567C7.09788 55.7594 6.98436 56.0343 6.98436 56.3209V62.8054C6.98436 63.0921 7.09788 63.367 7.29994 63.5696C7.50201 63.7723 7.77606 63.8862 8.06183 63.8862ZM9.1393 57.4016H13.4492V61.7247H9.1393V57.4016ZM8.06183 37.948H14.5267C14.8124 37.948 15.0865 37.8342 15.2885 37.6315C15.4906 37.4288 15.6041 37.1539 15.6041 36.8673V30.3827C15.6041 30.0961 15.4906 29.8212 15.2885 29.6185C15.0865 29.4159 14.8124 29.302 14.5267 29.302H8.06183C7.77606 29.302 7.50201 29.4159 7.29994 29.6185C7.09788 29.8212 6.98436 30.0961 6.98436 30.3827V36.8673C6.98436 37.1539 7.09788 37.4288 7.29994 37.6315C7.50201 37.8342 7.77606 37.948 8.06183 37.948ZM9.1393 31.4635H13.4492V35.7865H9.1393V31.4635ZM55.4705 9.84838H54.3931V5.52536C54.3931 4.37882 53.939 3.27924 53.1307 2.46852C52.3225 1.65779 51.2262 1.20233 50.0832 1.20233C48.9401 1.20233 47.8439 1.65779 47.0356 2.46852C46.2274 3.27924 45.7733 4.37882 45.7733 5.52536V9.84838H15.6041V5.52536C15.6041 4.37882 15.15 3.27924 14.3418 2.46852C13.5335 1.65779 12.4373 1.20233 11.2942 1.20233C10.1512 1.20233 9.05495 1.65779 8.24669 2.46852C7.43843 3.27924 6.98436 4.37882 6.98436 5.52536V9.84838H5.90689C4.47807 9.84838 3.10778 10.4177 2.09745 11.4311C1.08713 12.4445 0.519531 13.819 0.519531 15.2522V64.9669C0.519531 66.4001 1.08713 67.7746 2.09745 68.788C3.10778 69.8014 4.47807 70.3707 5.90689 70.3707H55.4705C56.8994 70.3707 58.2697 69.8014 59.28 68.788C60.2903 67.7746 60.8579 66.4001 60.8579 64.9669V15.2522C60.8579 13.819 60.2903 12.4445 59.28 11.4311C58.2697 10.4177 56.8994 9.84838 55.4705 9.84838ZM47.9283 5.52536C47.9283 4.95209 48.1553 4.4023 48.5594 3.99694C48.9635 3.59157 49.5117 3.36384 50.0832 3.36384C50.6547 3.36384 51.2028 3.59157 51.607 3.99694C52.0111 4.4023 52.2381 4.95209 52.2381 5.52536V14.1714C52.2381 14.7447 52.0111 15.2945 51.607 15.6998C51.2028 16.1052 50.6547 16.3329 50.0832 16.3329C49.5117 16.3329 48.9635 16.1052 48.5594 15.6998C48.1553 15.2945 47.9283 14.7447 47.9283 14.1714V5.52536ZM9.1393 5.52536C9.1393 4.95209 9.36634 4.4023 9.77047 3.99694C10.1746 3.59157 10.7227 3.36384 11.2942 3.36384C11.8658 3.36384 12.4139 3.59157 12.818 3.99694C13.2221 4.4023 13.4492 4.95209 13.4492 5.52536V14.1714C13.4492 14.7447 13.2221 15.2945 12.818 15.6998C12.4139 16.1052 11.8658 16.3329 11.2942 16.3329C10.7227 16.3329 10.1746 16.1052 9.77047 15.6998C9.36634 15.2945 9.1393 14.7447 9.1393 14.1714V5.52536ZM58.703 64.9669C58.703 65.8268 58.3624 66.6515 57.7562 67.2596C57.15 67.8676 56.3278 68.2092 55.4705 68.2092H5.90689C5.0496 68.2092 4.22742 67.8676 3.62122 67.2596C3.01503 66.6515 2.67447 65.8268 2.67447 64.9669V24.979H58.703V64.9669ZM58.703 22.8175H2.67447V15.2522C2.67447 14.3923 3.01503 13.5676 3.62122 12.9595C4.22742 12.3515 5.0496 12.0099 5.90689 12.0099H6.98436V14.1714C6.98436 15.3179 7.43843 16.4175 8.24669 17.2282C9.05495 18.039 10.1512 18.4944 11.2942 18.4944C12.4373 18.4944 13.5335 18.039 14.3418 17.2282C15.15 16.4175 15.6041 15.3179 15.6041 14.1714V12.0099H45.7733V14.1714C45.7733 15.3179 46.2274 16.4175 47.0356 17.2282C47.8439 18.039 48.9401 18.4944 50.0832 18.4944C51.2262 18.4944 52.3225 18.039 53.1307 17.2282C53.939 16.4175 54.3931 15.3179 54.3931 14.1714V12.0099H55.4705C56.3278 12.0099 57.15 12.3515 57.7562 12.9595C58.3624 13.5676 58.703 14.3923 58.703 15.2522V22.8175ZM22.0689 37.198C22.1534 37.3671 22.2807 37.511 22.438 37.6153C22.5953 37.7196 22.7772 37.7807 22.9654 37.7924H23.0322C23.2096 37.7923 23.3843 37.7483 23.5407 37.6642C23.6971 37.5801 23.8304 37.4586 23.9287 37.3104L28.2385 30.8259C28.3171 30.7078 28.3717 30.5753 28.3992 30.4361C28.4267 30.2969 28.4265 30.1535 28.3988 30.0143C28.3711 29.8752 28.3163 29.7428 28.2376 29.6248C28.1589 29.5069 28.0578 29.4056 27.9401 29.3268C27.8224 29.2481 27.6903 29.1933 27.5515 29.1657C27.4127 29.1382 27.2698 29.1383 27.131 29.1661C26.9923 29.1939 26.8603 29.2488 26.7427 29.3278C26.6251 29.4067 26.5242 29.5081 26.4456 29.6262L23.1658 34.5609L21.8535 31.9088C21.7902 31.7817 21.7026 31.6685 21.5957 31.5754C21.4888 31.4823 21.3647 31.4113 21.2304 31.3663C21.0962 31.3213 20.9544 31.3033 20.8132 31.3133C20.672 31.3233 20.5341 31.3612 20.4075 31.4246C20.2809 31.488 20.1679 31.5759 20.0751 31.6831C19.9823 31.7903 19.9115 31.9148 19.8667 32.0495C19.8218 32.1842 19.8039 32.3264 19.8139 32.468C19.8238 32.6097 19.8615 32.7479 19.9248 32.875L22.0689 37.198ZM33.9211 37.948H40.386C40.6717 37.948 40.9458 37.8342 41.1478 37.6315C41.3499 37.4288 41.4634 37.1539 41.4634 36.8673V30.3827C41.4634 30.0961 41.3499 29.8212 41.1478 29.6185C40.9458 29.4159 40.6717 29.302 40.386 29.302H33.9211C33.6354 29.302 33.3613 29.4159 33.1592 29.6185C32.9572 29.8212 32.8437 30.0961 32.8437 30.3827V36.8673C32.8437 37.1539 32.9572 37.4288 33.1592 37.6315C33.3613 37.8342 33.6354 37.948 33.9211 37.948ZM34.9986 31.4635H39.3085V35.7865H34.9986V31.4635ZM33.9211 63.8862H40.386C40.6717 63.8862 40.9458 63.7723 41.1478 63.5696C41.3499 63.367 41.4634 63.0921 41.4634 62.8054V56.3209C41.4634 56.0343 41.3499 55.7594 41.1478 55.5567C40.9458 55.354 40.6717 55.2401 40.386 55.2401H33.9211C33.6354 55.2401 33.3613 55.354 33.1592 55.5567C32.9572 55.7594 32.8437 56.0343 32.8437 56.3209V62.8054C32.8437 63.0921 32.9572 63.367 33.1592 63.5696C33.3613 63.7723 33.6354 63.8862 33.9211 63.8862ZM34.9986 57.4016H39.3085V61.7247H34.9986V57.4016ZM33.9211 50.9171H40.386C40.6717 50.9171 40.9458 50.8032 41.1478 50.6006C41.3499 50.3979 41.4634 50.123 41.4634 49.8363V43.3518C41.4634 43.0652 41.3499 42.7903 41.1478 42.5876C40.9458 42.3849 40.6717 42.2711 40.386 42.2711H33.9211C33.6354 42.2711 33.3613 42.3849 33.1592 42.5876C32.9572 42.7903 32.8437 43.0652 32.8437 43.3518V49.8363C32.8437 50.123 32.9572 50.3979 33.1592 50.6006C33.3613 50.8032 33.6354 50.9171 33.9211 50.9171ZM34.9986 44.4326H39.3085V48.7556H34.9986V44.4326ZM27.4563 42.2711H20.9915C20.7057 42.2711 20.4317 42.3849 20.2296 42.5876C20.0275 42.7903 19.914 43.0652 19.914 43.3518V49.8363C19.914 50.123 20.0275 50.3979 20.2296 50.6006C20.4317 50.8032 20.7057 50.9171 20.9915 50.9171H27.4563C27.7421 50.9171 28.0161 50.8032 28.2182 50.6006C28.4203 50.3979 28.5338 50.123 28.5338 49.8363V43.3518C28.5338 43.0652 28.4203 42.7903 28.2182 42.5876C28.0161 42.3849 27.7421 42.2711 27.4563 42.2711ZM26.3788 48.7556H22.0689V44.4326H26.3788V48.7556Z" stroke="#2F5325" stroke-width="0.8" mask="url(#path-1-outside-1_1192_24)"/>
</svg>
